<?xml version="1.0" encoding="utf-8"?>
<!-- Generator: Adobe Illustrator 18.1.0, SVG Export Plug-In . SVG Version: 6.00 Build 0)  -->
<!DOCTYPE svg PUBLIC "-//W3C//DTD SVG 1.1//EN" "http://www.w3.org/Graphics/SVG/1.1/DTD/svg11.dtd">
<svg version="1.1" id="Layer_1" xmlns="http://www.w3.org/2000/svg" xmlns:xlink="http://www.w3.org/1999/xlink" x="0px" y="0px"
	 viewBox="0 0 306.6 96.5" enable-background="new 0 0 306.6 96.5" xml:space="preserve">
<linearGradient id="SVGID_1_" gradientUnits="userSpaceOnUse" x1="447.474" y1="2557.7813" x2="448.5416" y2="2465.9683" gradientTransform="matrix(0 -1 1 0 -2252.8372 497.3891)">
	<stop  offset="0" style="stop-color:#2B3990"/>
	<stop  offset="2.766377e-002" style="stop-color:#2A3D93"/>
	<stop  offset="0.2454" style="stop-color:#2455A5"/>
	<stop  offset="0.4734" style="stop-color:#1F67B2"/>
	<stop  offset="0.7164" style="stop-color:#1D72BA"/>
	<stop  offset="1" style="stop-color:#1C75BC"/>
</linearGradient>
<path fill="url(#SVGID_1_)" d="M27.6,96.4C27.6,96.4,27.6,96.4,27.6,96.4l279-0.1V0.1h-280c0,0,0,0,0,0S10.1-0.6,10.2,2
	c0.1,2.6-2.7,0.9-3.9,5.4c-1.1,4.6-5.2,3.3-4.9,7.3c0.3,4,5.3,8.7,1,9.9c-4.3,1.1-2.5,5.9,2.9,5.9c5.4,0,9,3,2,7.3
	c-7,4.3-1,9.5-2.7,13.2C3,54.8,11.6,54,9,57.5c-2.7,3.5-1.1,7.8,0.9,10.8c2,2.9-4.3,4.9-3.8,8.2c0.5,3.3,3.9,3.2,4.3,6.6
	c0.4,3.4-0.1,5.6,1.6,7.3c1.8,1.8,1.5,4,3.5,4.9C17.6,96.3,21.9,96.6,27.6,96.4z"/>
</svg>
