<?xml version="1.0" encoding="utf-8"?>
<!-- Generator: Adobe Illustrator 18.1.0, SVG Export Plug-In . SVG Version: 6.00 Build 0)  -->
<!DOCTYPE svg PUBLIC "-//W3C//DTD SVG 1.1//EN" "http://www.w3.org/Graphics/SVG/1.1/DTD/svg11.dtd">
<svg version="1.1" id="Layer_1" xmlns="http://www.w3.org/2000/svg" xmlns:xlink="http://www.w3.org/1999/xlink" x="0px" y="0px"
	 viewBox="0 0 374.9 179.4" enable-background="new 0 0 374.9 179.4" xml:space="preserve">
<linearGradient id="SVGID_1_" gradientUnits="userSpaceOnUse" x1="203.4517" y1="144.1022" x2="141.8134" y2="143.3855">
	<stop  offset="0" style="stop-color:#2B3990"/>
	<stop  offset="2.766377e-002" style="stop-color:#2A3D93"/>
	<stop  offset="0.2454" style="stop-color:#2455A5"/>
	<stop  offset="0.4734" style="stop-color:#1F67B2"/>
	<stop  offset="0.7164" style="stop-color:#1D72BA"/>
	<stop  offset="1" style="stop-color:#1C75BC"/>
</linearGradient>
<rect x="-1" y="105.4" fill="url(#SVGID_1_)" width="205.5" height="75"/>
<g>
	<g>
		<g>
			<path fill="#FFFFFF" d="M35,112.1h1.4c0,0.3,0.3,0.5,0.9,0.5c0.6,0,0.9-0.2,0.9-0.5h39.2c0.9,0,2.3,2.6,4.2,7.9l-2.3,0.5l0.5,0.8
				v0.2c-0.9,0.4-1.4,0.6-1.4,0.8l0.5,1c-0.3,0.6-0.5,1-0.5,1.3c0.5,0.4,0.9,0.7,1.4,0.7h0.5l-0.5-0.8c1.5-0.3,2.7-0.5,3.7-0.5
				l0.5,0.3v0.3h-0.9v-0.3h-0.9v0.5c0.1,0.2,0.4,0.3,0.9,0.3l0.9-0.2c0.6,0.5,0.9,1,0.9,1.3l-0.5,0.3c1.2,0.9,5.9,10.4,14,28.6
				l-0.9,0.2H86.9c-0.7,0-1.3,0.1-1.9,0.2c-0.5-0.1-1.2-0.2-1.9-0.2l-2.8,0.2c-0.6-0.1-1.1-0.2-1.4-0.2c-0.3,0-0.5,0.1-0.5,0.2
				l-2.3-0.2h-2.8c-1,0-1.8,0.1-2.3,0.2l-2.8-0.2h-3.3c-0.6,0-1.7-2.4-3.3-7.1H46.7c-0.9,0-1.6,2.1-2.3,6.2
				c-0.5,0.5-0.9,0.8-1.4,0.8H31.7c-0.9,0-1.3-0.3-1.4-0.8h-0.9c-0.6,0-0.9,0.3-0.9,0.8H10.3c-0.6,0-0.9-0.1-0.9-0.3
				c5.6-12,8.9-18.7,9.8-20.2l0.9,0.2h0.5c0-0.4,0.5-0.7,1.4-0.7c2,0.2,3.4,0.3,4.2,0.3c-0.5-0.5-1.9-0.8-4.2-0.8
				c-1.2,0.3-1.9,0.5-1.9,0.8h-0.9c1.9-4.7,3.3-7.1,4.2-7.1l-0.5-0.3v-1.3h0.9l0.9,0.2v-0.2l-0.9-0.5c0-0.7,1.1-3.4,3.3-8.2H28
				c0,0.3,0.2,0.7,0.5,1.3c-0.2,1.1-0.5,1.6-0.9,1.6c0.6,0.4,0.9,0.7,0.9,1c-0.5,0-1.1,0.2-1.9,0.7l1.4,0.7v0.2l-2.3,1.3v0.5
				c1.3,0,2.3,0.3,2.8,0.8c0,0.2-0.5,0.3-1.4,0.3v0.3c1.2,0.1,1.9,0.2,1.9,0.5l-0.5,0.8c0,0.1,0.2,0.2,0.5,0.2l-0.9,2.1l1.9,0.3
				c-0.6,0.5-1.2,0.8-1.9,0.8l0.5,0.3v0.2l-0.9,0.5l0.9,0.2l2.8-0.2c0.6,0.1,1.1,0.2,1.4,0.2v-0.2l-1.4-0.8c1.4,0,2.3-0.5,2.8-1.5
				c-0.3-0.2-0.5-0.4-0.5-0.5c0.6,0,0.9-0.1,0.9-0.3l-1.4-0.8c2.2-0.2,3.3-0.4,3.3-0.5l-2.3-1l0.5-0.3l-0.5-0.8c0.9-1.3,2.4-2,4.7-2
				v-0.5h-2.8c-1.6,0-2.3-0.1-2.3-0.3c0-0.3-0.2-1.1-0.5-2.5c0.5-0.9,1.3-1.3,2.3-1.3v-0.2H35c-0.5,0.1-1.2,0.2-1.9,0.2v-0.3h0.9
				l-0.5-0.3c0.3-0.2,0.5-0.4,0.5-0.5l-0.9-0.2c0.3-0.3,0.6-0.5,0.9-0.5c-0.6-0.4-0.9-0.7-0.9-1c0.6-0.4,0.9-0.7,0.9-1
				c0-0.5-0.6-1-1.9-1.5C33.7,112.5,34.6,112.1,35,112.1z M22.9,128.1v0.2l0.9,1.3c1.9,0,2.8-0.3,2.8-1L22.9,128.1z M25.2,131.8
				c0,0.1-0.2,0.3-0.5,0.5h0.9v-0.5H25.2z M27.5,116.2h0.9v0.7h-0.9V116.2z M27.5,136.6c1.2,0.2,2.2,0.3,2.8,0.3l2.3-0.5
				c0,0.2,0.5,0.3,1.4,0.5c0.3-0.2,0.5-0.4,0.5-0.5c-0.9-0.5-1.4-0.8-1.4-1l-2.3,0.2v-0.3l2.3-0.2v-0.7c-1.2,0-1.9-0.1-1.9-0.3
				C30.3,134.1,29,135,27.5,136.6z M28.5,145.5v0.3c0.1,0.2,0.4,0.3,0.9,0.3c0.6,0,0.9-0.1,0.9-0.3v-0.3H28.5z M29.4,143
				c1.9,0.3,2.8,0.5,2.8,0.7c-2.2,0.2-3.3,0.5-3.3,0.8l1.4,0.3h1.9l0.9-0.2v0.3h-0.9v0.3c0.5,0,1.1,0.1,1.9,0.3
				c0.6,0,1.2-0.4,1.9-1.1l-3.3-0.8v-0.2l0.9-0.5c-0.6-0.3-0.9-0.5-0.9-0.8C31,142.2,29.9,142.5,29.4,143z M29.9,132.2v0.5
				c0.1,0.2,0.4,0.3,0.9,0.3h2.8v-0.3l-0.5-0.3l-0.9,0.2l-1.4-0.3H29.9z M31.3,138.1c0,0.3-0.5,0.5-1.4,0.5v0.2c0.9,0,1.4,0.3,1.4,1
				h0.5l1.9-0.5c-0.5-0.4-0.9-0.7-1.4-0.7l0.5-0.3v-0.2H31.3z M32.2,147.1c0.1,0.2,0.4,0.3,0.9,0.3c0.6,0,0.9-0.1,0.9-0.3
				s-0.3-0.3-0.9-0.3C32.5,146.8,32.2,146.9,32.2,147.1z M35,115.6v0.2c0.1,0.2,0.4,0.3,0.9,0.3h0.9v-0.7h-0.5
				C35.8,115.5,35.3,115.6,35,115.6z M36.9,128.2l-0.5,0.3v0.2h0.5c0.6,0,0.9-0.1,0.9-0.3L36.9,128.2z M36.9,114.1v0.3
				c0.1,0.2,0.4,0.3,0.9,0.3c0.6-0.1,1.1-0.2,1.4-0.2v-0.5H36.9z M37.3,126.1v0.2c1.6,0.1,2.6,0.2,2.8,0.2v-0.5h-0.5L37.3,126.1z
				 M37.8,113.3v0.2c0.1,0.2,0.4,0.3,0.9,0.3h0.5v-0.5H37.8z M39.7,121.5v0.2c0.1,0.2,0.4,0.3,0.9,0.3h0.9v-0.3L39.7,121.5z
				 M39.7,123.5v0.2h1.4v-0.5h-0.5C40,123.2,39.7,123.3,39.7,123.5z M40.1,124.5v0.5l2.8,0.7v0.2l-0.9,0.7l1.4,0.3
				c1.1-0.8,2.3-1.1,3.7-1.1v-0.2l-0.5-0.3l-0.9,0.2h-1.4c0-0.3-0.8-0.7-2.3-1.2C41.2,124.3,40.6,124.5,40.1,124.5z M42.5,136.6
				l0.9,0.2h0.9v-0.7h-0.5C43.4,136.1,42.9,136.3,42.5,136.6z M43.9,118.4c0,0.2-0.3,0.4-0.9,0.7l0.9,0.2h0.5v-0.8H43.9z M53.7,121
				c0,2.4-2.2,8.2-6.5,17.4h13.5c-3.5-7.4-5.7-13.2-6.5-17.4H53.7z M48.1,115.7v0.5H49v-0.2C49,115.9,48.7,115.7,48.1,115.7z
				 M49.5,146.8l-0.9,0.5l0.9,0.2H50c0-0.1,0.2-0.3,0.5-0.5L49.5,146.8z M50,144.3v0.5h0.5c0.6,0,0.9-0.1,0.9-0.3l-0.9-0.2H50z
				 M55.6,142.2v0.5H56c0.6,0,0.9-0.1,0.9-0.3l-0.9-0.2H55.6z M56.5,124.5c0,0.2,0.2,0.5,0.5,0.7l-0.5,0.3c0.5,0.5,2,0.8,4.7,0.8
				v-0.2c-1.6-0.4-2.3-0.7-2.3-1l-1.9-0.7H56.5z M64.9,151.1l-0.5,0.8h2.3c0-0.2,0.2-0.3,0.5-0.3c-0.3-0.2-0.5-0.4-0.5-0.5H64.9z
				 M67.2,150.7v0.3h1.9v-0.5h-0.5C68,150.7,67.5,150.7,67.2,150.7z M71,151.1v0.2h0.9v-0.5C71.3,150.8,71,150.9,71,151.1z
				 M83.6,135.9v0.5h0.9c-0.3-0.2-0.5-0.4-0.5-0.5H83.6z M83.6,140.9v0.3c0.6,0.5,1.2,0.8,1.9,0.8l0.5-0.3v-0.2
				C85.9,141.4,85.1,141.1,83.6,140.9z"/>
			<path fill="#FFFFFF" d="M111.4,112h12.1c1.6,0,3,0.2,4.2,0.5c0-0.3,0.3-0.5,0.9-0.5h13.5c0.6,0,0.9,0.1,0.9,0.3v1.3
				c0,0.1-0.2,0.2-0.5,0.2l0.5,0.3v2.6c0,0.4-0.2,0.7-0.5,0.7l0.5,1.1v7.2c0,0.1-0.2,0.2-0.5,0.2c0.3,0.2,0.5,0.4,0.5,0.7h10.7
				v-14.3c0.1-0.2,0.4-0.3,0.9-0.3h14.9c0.3,0,0.5,0.1,0.5,0.2l0.9-0.2h14.5c0.6,0,0.9,0.1,0.9,0.3v3.4c0,0.2-0.3,0.3-0.9,0.3
				c0-0.1-0.2-0.2-0.5-0.2c0,0.7-1.2,1.3-3.7,1.8L181,118h0.9l3.7-1.2h0.5l0.5,0.3v0.2c0,0.4-0.2,0.9-0.5,1.3
				c0.3,0.4,0.5,0.8,0.5,1.3c-0.5,0-0.9,0.2-1.4,0.5v0.5h1.4v4.1c0,0.2-1.2,0.3-3.7,0.5l-2.3-0.2h-3.3l-2.3-0.7
				c0,0.3-0.3,0.5-0.9,0.8l-3.3-0.2h-0.5c-0.6,0-0.9,0.1-0.9,0.3c0,0.2,1.9,0.4,5.6,0.5l1.9,0.8c1.8-0.7,2.9-1,3.3-1
				c1.5,0,2.6,0.3,3.3,0.8c1.9,0,2.8,0.2,2.8,0.5c0,0.1-1.1,0.4-3.3,0.7c-2.1-0.8-3.3-1.2-3.7-1.2h-0.5v0.2c0.6,0.4,0.9,0.7,0.9,1
				c0,0.1-1.2,0.4-3.7,0.7h-0.5l-1.4-0.3h-0.9l-1.4,0.3h-3.7l-0.9-0.2l-0.5,0.3c0,0.2,0.5,0.3,1.4,0.5c0.1-0.2,0.4-0.3,0.9-0.3h0.5
				l1.4,0.3c1-0.2,1.9-0.3,2.8-0.3h0.5c1.9,0.3,2.8,0.5,2.8,0.7v0.3c0,0.2-0.3,0.3-0.9,0.3c-0.6,0-0.9-0.1-0.9-0.3l-2.3,0.2h-1.4
				l-1.4-0.3l-0.9,0.5c0,0.2,0.5,0.3,1.4,0.5l2.3-0.2c0.6,0.1,1.1,0.2,1.4,0.2c0.1-0.2,0.4-0.3,0.9-0.3h0.5l1.4,0.3h1.4
				c0-0.2,0.2-0.3,0.5-0.3l-0.5-0.3v-0.7c0-0.2,0.5-0.3,1.4-0.3c0.6,0.1,1.1,0.2,1.4,0.2c0.6-0.3,0.9-0.5,0.9-0.8h0.9
				c0,0.3,0.3,0.5,0.9,0.8v0.2c0,0.1-0.9,0.3-2.8,0.5c0,0.2-0.6,0.5-1.9,0.8h0.5c0.7,0,1.3-0.1,1.9-0.2c1.7,0.1,3.1,0.2,4.2,0.2h0.9
				v0.8c0,0.2-0.3,0.3-0.9,0.3h-0.5c-0.8,0-1.2-0.2-1.4-0.7c-1.5,0.4-2.7,0.7-3.7,0.7c0-0.2-0.5-0.3-1.4-0.3
				c-0.6,0.1-1.1,0.2-1.4,0.2c0-0.1-0.2-0.2-0.5-0.2c-0.4,0.5-0.9,0.8-1.4,0.8h-0.5l-1.9-0.5c0,0.3-1.1,0.5-3.3,0.8h-0.5
				c-0.3,0-1.1-0.3-2.3-1h-0.5v0.5h-0.9l-2.3-1h-0.5v0.2c0.3,0.2,0.5,0.4,0.5,0.7v0.2l-2.3,0.2h-3.7l-1.4-0.3c0,0.2-0.3,0.3-0.9,0.3
				H153l-0.9-0.2c0,0.4-1.4,0.6-4.2,0.7c-0.5-0.1-1.2-0.2-1.9-0.2h-0.5v0.3h-1.4l-1.4-0.3c0,0.2-0.3,0.3-0.9,0.3h-0.9
				c-0.8,0-1.2-0.2-1.4-0.7c-2.6,0.7-4.1,1.2-4.7,1.6l0.9,0.2c0-0.2,1.6-0.4,4.7-0.7v-0.2h3.7l1.4,0.3l1.4-0.3
				c0.1,0.2,0.4,0.3,0.9,0.3h0.9l1.4-0.3h0.5c0.6,0.2,1.6,0.3,2.8,0.3c0.1-0.2,0.4-0.3,0.9-0.3h0.5l1.4,0.3h0.5l1.4-0.3l0.5,0.3
				l-0.5,0.3h0.5l1.9-0.3c1.6,0.2,2.6,0.3,3.3,0.3l4.2-0.2c0.9,0,2.2,0.1,3.7,0.3c0.1-0.2,0.4-0.3,0.9-0.3c0.3,0,0.8,0.1,1.4,0.2
				l4.2-0.3l1.4,0.7l2.8-0.5c0.7,0,1.3,0.1,1.9,0.2c0.6-0.1,1.1-0.2,1.4-0.2c0.6,0.4,0.9,0.7,0.9,1v0.5c0,0.2-1.7,0.4-5.1,0.5
				c0,0.1-0.2,0.2-0.5,0.2h-0.9l-1.4-0.3c0,0.2-0.3,0.3-0.9,0.3h-2.3c-0.4-0.2-2.3-0.3-5.6-0.5c0-0.1-0.2-0.2-0.5-0.2
				c-1.9,0.4-3.3,0.7-4.2,0.7c0.3,0.2,0.5,0.4,0.5,0.7l3.3-0.7h0.5c2.2,0.4,3.3,0.7,3.3,0.8c0,0.2-0.3,0.3-0.9,0.3h-0.5l-3.3-0.7
				c0,0.3-0.5,0.6-1.4,1h4.7l1.4,0.3h0.5l1.4-0.3h2.3l1.4,0.3c0.1-0.2,0.4-0.3,0.9-0.3h0.5l1.4,0.3h3.3c0-0.4,0.3-0.7,0.9-0.7
				c0.5,0,0.9,0.2,1.4,0.5v4.8c0,0.1-0.2,0.2-0.5,0.2l0.5,0.3v0.8c-1.2,0-2.1,0.1-2.8,0.3l-1.4-0.3H181l-1.4,0.3H174l0.5,0.8h0.5
				l1.4-0.3c0.3,0,0.5,0.1,0.5,0.2c1-0.2,1.9-0.3,2.8-0.3h2.3l1.4,0.3c0.9,0,1.8-0.1,2.8-0.3l0.5,0.3v0.8c0,0.2-0.3,0.3-0.9,0.3
				h-4.2c-0.3,0-0.5-0.1-0.5-0.2c-1.6,0.1-2.3,0.3-2.3,0.5v0.2h0.9c1,0,1.8-0.1,2.3-0.2c3.1,0.1,4.7,0.3,4.7,0.5v0.8
				c0,0.1-0.8,0.4-2.3,0.7c0-0.2-0.3-0.3-0.9-0.3c0,0.2-0.3,0.3-0.9,0.3l-1.4-0.3h-3.3l-1.4,0.3c-1.3-0.5-3.5-0.8-6.5-1
				c0,0.3-0.3,0.5-0.9,0.5l-0.9-0.2l-2.8,0.2c-2.5-0.1-3.7-0.2-3.7-0.5l0.5-1v-0.2h-2.3c-0.6,0-0.9-0.1-0.9-0.3v-0.2
				c0-0.2,0.6-0.4,1.9-0.7h3.3l5.6-0.2v0.2c1.9-0.1,2.8-0.4,2.8-0.8h-5.6c-0.8-0.2-1.4-0.3-1.9-0.3c-0.3,0-0.5,0.1-0.5,0.2l-2.3-0.2
				h-0.9l-1.4,0.3c0-0.2-0.3-0.3-0.9-0.3l-1.4,0.3h-2.3c-0.6,0-0.9-0.1-0.9-0.3v-5.7h-10.7v6.1c0,0.2-0.3,0.3-0.9,0.3l-0.9-0.2
				l1.9,0.8v0.7c0,0.2-0.2,0.5-0.5,0.7c0.3,0.2,0.5,0.4,0.5,0.7c-0.3,0.3-0.6,0.5-0.9,0.5l0.5,0.3v0.7c0,0.2-0.3,0.3-0.9,0.3h-0.9
				c-2.2-0.2-3.3-0.8-3.3-1.8h-0.5l-2.8,1.1h-1.4c-0.2,0-0.9-0.2-2.3-0.7c0,0.4-0.5,0.7-1.4,0.7c-2.8-0.3-4.2-0.5-4.2-0.7v-0.5
				c0-0.1,0.2-0.2,0.5-0.2c0-0.5-1.4-0.8-4.2-1v-0.3h-0.5c-1,0.3-1.8,0.5-2.3,0.5v0.3c2.2,0,3.3,0.2,3.3,0.5v0.3
				c-0.6,0.4-1.4,0.7-2.3,0.7l-2.8-0.2c-1.1,0.1-1.7,0.2-1.9,0.2l-2.3-0.2c-0.6,0.1-1.1,0.2-1.4,0.2l-0.5-0.3v-2.8
				c0.1-0.2,0.4-0.3,0.9-0.3h0.9c0.6,0,0.9,0.1,0.9,0.3l0.9-0.2l1.4,0.3h0.5c0.6,0,0.9-0.1,0.9-0.3l2.3,0.2h0.5l1.4-0.3h3.7
				c0-0.5,0.3-0.8,0.9-0.8v0.8h2.3l0.9,0.2l0.5-0.3v-0.2c-1.2-0.1-2.6-0.3-4.2-0.7H125l-2.8,0.7H118l-1.4-0.3l-1.4,0.3
				c0-0.2-1.6-0.4-4.7-0.5v-9.9c0.1-0.2,0.4-0.3,0.9-0.3h0.9l1.4,0.3h0.5c0.7,0,1.3-0.1,1.9-0.2c0.5,0.1,1.2,0.2,1.9,0.2
				c0.1-0.2,0.4-0.3,0.9-0.3l1.9,0.8c0-0.4,0.8-0.7,2.3-1l0.9-0.5h-1.9l-1.4,0.3h-0.9v-0.3c-0.9,0-1.4,0.1-1.4,0.2l-2.3-0.2h-3.3
				l-2.3,0.2v-20.7C110.6,112.1,110.9,112,111.4,112z M122.2,149.3c2.8,0.4,4.5,0.8,5.1,1.1c-0.9,0.2-2.6,0.4-5.1,0.5v0.3
				c0.6,0.3,0.9,0.5,0.9,0.7h0.5l5.6-0.7l1.4,0.3h6.5l1.4,0.3l0.9-0.2c0.6,0.1,1.1,0.2,1.4,0.2c0.5-0.4,0.9-0.7,1.4-0.7
				c0.6,0.4,0.9,0.7,0.9,1v0.7c0,0.2-0.5,0.3-1.4,0.5c0-0.2-0.3-0.3-0.9-0.3h-0.9v0.7c2.2,0.1,3.3,0.3,3.3,0.7v0.8
				c0,0.2-0.3,0.3-0.9,0.3h-30.8c-0.6,0-0.9-0.1-0.9-0.3v-3.3c0-0.2,2.5-0.4,7.5-0.7c0.1,0.2,0.4,0.3,0.9,0.3c1-0.3,1.8-0.5,2.3-0.5
				v-0.3c-0.2,0-1.2-0.1-2.8-0.2C118.6,149.7,119.8,149.3,122.2,149.3z M113.8,149.4h0.9c0.4,0,1.2,0.3,2.3,0.8v0.2
				c0,0.2-0.5,0.3-1.4,0.5h-0.9l-3.3-0.2c0,0.1-0.2,0.2-0.5,0.2l-0.5-0.3v-0.7l0.5-0.3l0.9,0.2h0.5L113.8,149.4z M112.4,126.3
				c0.1,0.2,0.4,0.3,0.9,0.3h2.8c0-0.2-0.3-0.3-0.9-0.3H112.4z M112.8,115.9c0.1,0.2,0.4,0.3,0.9,0.3v-0.7
				C113.1,115.6,112.8,115.7,112.8,115.9z M113.3,152.7v0.7c0.5,0,0.9-0.2,1.4-0.5v-0.2H113.3z M115.6,152.7v0.2
				c0,0.3,0.6,0.5,1.9,0.5l2.3-0.2c0.3,0.2,0.5,0.4,0.5,0.5c0.5,0,0.9-0.2,1.4-0.5V153c-1.6,0-2.3-0.1-2.3-0.3H115.6z M119.4,126.8
				c0.3,0.2,0.5,0.4,0.5,0.5c1.9-0.3,2.8-0.5,2.8-0.7c-0.5,0-1.1-0.1-1.9-0.3C120.3,126.3,119.8,126.4,119.4,126.8z M120.3,119.7
				l-0.5,1h0.9c0-0.3,0.3-0.5,0.9-0.5h0.9c0.3,0.4,0.5,0.9,0.5,1.5h0.5c0-0.2,0.5-0.5,1.4-0.8C124.8,120.6,123.3,120.2,120.3,119.7z
				 M122.6,124.5l0.9,0.2l0.5-1C123.3,123.6,122.9,123.9,122.6,124.5z M125.4,125.3c0,0.2-0.8,0.6-2.3,1.1v0.2h1.4l1.4-0.3h2.3v-0.3
				c-1.2,0-1.9-0.2-1.9-0.7H125.4z M123.1,135.8v0.7c0.5,0,1.1,0.1,1.9,0.3v-0.5c0-0.2-0.5-0.3-1.4-0.5H123.1z M126.4,128.4H124
				c0,0.2-0.2,0.5-0.5,0.7c0.3,0,0.5,0.1,0.5,0.2l0.9-0.2h0.5l1.9,0.5v-1.3L126.4,128.4z M124,153v0.3h5.1V153H124z M125.9,146.5
				v0.3h2.3c0-0.2-0.3-0.3-0.9-0.3H125.9z M136.2,149.3c0.1,0.2,0.4,0.3,0.9,0.3l1.4-0.3c1.6,0.1,2.6,0.2,2.8,0.2
				c0.6-0.1,1.1-0.2,1.4-0.2l0.5,0.3v0.8c0,0.2-0.5,0.3-1.4,0.5h-0.9c-0.7,0-1.3-0.1-1.9-0.2l-0.9,0.2l-0.9-0.2l-0.9,0.2
				c-1,0-2.3-0.2-3.7-0.5c0,0.2-0.3,0.3-0.9,0.3H131c-2.2-0.3-3.3-0.5-3.3-0.7v-0.2c0-0.3,0.6-0.4,1.9-0.5l0.9,0.2
				c0.6-0.1,1.1-0.2,1.4-0.2l0.5,0.3C134.2,149.4,135.5,149.3,136.2,149.3z M129.6,122.2v0.7c0.6,0,0.9-0.1,0.9-0.3v-0.3H129.6z
				 M130.1,136.1v0.3h1.4v-0.2c-0.3-0.2-0.5-0.4-0.5-0.5C130.4,135.8,130.1,135.9,130.1,136.1z M130.6,153v0.3h0.5
				c0.6,0,0.9-0.1,0.9-0.3H130.6z M132.4,125.8l-0.5,0.3l0.9,0.2l0.5-0.3L132.4,125.8z M132.4,128.1l-0.5,1c0.6,0,0.9,0.1,0.9,0.3
				c1-0.2,1.8-0.3,2.3-0.3v-0.7c-0.5,0-1.1-0.1-1.9-0.3H132.4z M132.4,133.3l-0.5,0.8l0.9,0.2l0.9-0.5
				C133.8,133.6,133.4,133.5,132.4,133.3z M134.3,144.2v0.3c0.8,0,1.6,0.1,2.3,0.3h0.5c0.8-0.2,1.6-0.3,2.3-0.3v-0.3
				c-0.5,0-1.1-0.1-1.9-0.3h-0.5C136.4,144.1,135.5,144.2,134.3,144.2z M134.3,153v0.3c0.8,0,1.6,0.1,2.3,0.3h1.4
				c-0.3-0.2-0.5-0.4-0.5-0.7H134.3z M135.7,125.9v0.2h4.7c0.3,0,0.5,0.1,0.5,0.2c0.6-0.1,1.1-0.2,1.4-0.2v-0.2
				c-1.9,0-2.8-0.1-2.8-0.3C137.5,125.8,136.3,125.9,135.7,125.9z M144.6,128.1c0,0.2-0.3,0.4-0.9,0.7v0.3h1.4v-1H144.6z
				 M148.8,130.2l-0.5,0.3h1.4C149.7,130.3,149.4,130.2,148.8,130.2z M150.7,128.1v0.2c0.1,0.2,0.4,0.3,0.9,0.3v-0.5H150.7z
				 M150.7,130.5h1.9c0-0.2-0.3-0.3-0.9-0.3C151,130.2,150.7,130.3,150.7,130.5z M152.5,128.9l0.5,0.3c0.5-0.1,1.4-0.2,2.8-0.2v-0.3
				L152.5,128.9z M154.9,145c1.2,0.2,1.9,0.5,1.9,1l0.9-0.2h0.5v0.7c0,0.2-0.3,0.3-0.9,0.3c-2.2-0.3-3.3-0.5-3.3-0.7v-0.8
				C154,145.1,154.3,145,154.9,145z M179.1,148.6h0.5l1.4,0.3h4.7c0.6,0,0.9,0.1,0.9,0.3v1.6c0,0.2-0.3,0.3-0.9,0.3l-1.4-0.3
				c0,0.2-0.3,0.3-0.9,0.3l-1.4-0.3h-4.7l-1.4,0.3l-0.5-0.3c-0.3,0-0.5,0.1-0.5,0.2c-3.4,0-5.1-0.2-5.1-0.7
				c-1.4,0.3-2.5,0.5-3.3,0.5c0-0.2-0.5-0.3-1.4-0.5h-0.5c0,0.1-0.2,0.3-0.5,0.5l-0.9-0.2h-7c-0.3,0-0.5-0.1-0.5-0.2l-0.9,0.2
				c-0.6,0-0.9-0.1-0.9-0.3v-0.7c0.1-0.2,0.4-0.3,0.9-0.3h1.9c0.7,0,1.3,0.1,1.9,0.2c0.6-0.1,1.1-0.2,1.4-0.2c0.3,0,0.5,0.1,0.5,0.2
				l2.3-0.2h1.9l0.9,0.2c0.1-0.2,0.4-0.3,0.9-0.3h4.2l1.4-0.3h0.9l1.4,0.3c0.1-0.2,0.4-0.3,0.9-0.3h0.5l1.4,0.3h0.9
				C178.2,148.8,178.5,148.6,179.1,148.6z M166.1,151.7l5.6,0.3v-0.3c3.4,0.1,5.1,0.2,5.1,0.3l0.9-0.2h1.4c0.3,0,0.5,0.1,0.5,0.2
				l0.9-0.2h0.9c0.7,0.2,2.4,0.4,5.1,0.5v0.8l-2.3-0.2h-0.9l-1.4,0.3h-2.3l-1.4-0.3h-1.9c0,0.3-0.5,0.5-1.4,0.5v0.2h4.7
				c0.6,0,0.9,0.2,0.9,0.5l6.1-0.3v1.3c0,0.2-0.3,0.3-0.9,0.3h-30.8c-0.6,0-0.9-0.1-0.9-0.3V154c0.1-0.2,0.4-0.3,0.9-0.3l1.4,0.3
				h2.8c1-0.3,1.8-0.5,2.3-0.5c0.6,0.1,1.1,0.2,1.4,0.2c-0.6-0.3-0.9-0.5-0.9-0.7c-1,0-1.8,0.1-2.3,0.2c-3.7-0.1-5.6-0.3-5.6-0.5
				v-0.8h10.3C164.9,151.9,165.5,151.8,166.1,151.7z M155.8,125.8v0.3c0.7,0,1.6,0.2,2.8,0.5l1.4-0.7v-0.5h-3.3
				C156.1,125.5,155.8,125.6,155.8,125.8z M158.1,128.4v0.7h2.8c0.6,0,0.9-0.1,0.9-0.3v-0.2l-0.9,0.2h-1.4L158.1,128.4z
				 M159.1,147.1h0.9c0.6,0,0.9,0.1,0.9,0.3l-0.5,0.3c-0.5-0.1-1.3-0.2-2.3-0.2v-0.2C158.2,147.2,158.5,147.1,159.1,147.1z
				 M158.6,135.8v0.2c0.3,0.2,0.5,0.4,0.5,0.5h2.8l0.5-0.7l-1.4,0.3h-0.5l-1.4-0.3H158.6z M161.9,123.8l-0.5,0.3
				c0,0.2,0.5,0.3,1.4,0.5h0.5v-0.2C162.8,124,162.3,123.8,161.9,123.8z M162.3,114.4c0.3,0.9,0.8,1.6,1.4,2.1h0.5l0.5-0.7
				c-0.9,0-1.5-0.5-1.9-1.5H162.3z M162.8,120v0.3h0.5l2.3-0.2V120H162.8z M162.8,130.2c0.6,0.3,0.9,0.5,0.9,0.7h1.4l1.4-0.3
				c0,0.1,0.2,0.2,0.5,0.2l0.5-0.3c0-0.2-0.3-0.3-0.9-0.3c0,0.1-0.2,0.2-0.5,0.2c0-0.2-0.3-0.3-0.9-0.3h-1.4
				C163.1,129.9,162.8,130,162.8,130.2z M163.7,125.8v0.3h4.7v-0.2c-0.3-0.2-0.5-0.4-0.5-0.5h-3.3
				C164,125.5,163.7,125.6,163.7,125.8z M163.7,153.7h1.9c0-0.2-0.3-0.3-0.9-0.3C164,153.4,163.7,153.5,163.7,153.7z M166.5,120.3
				v0.3h1.4v-0.3H166.5z M166.5,153.7c1.2,0,2.4,0.2,3.7,0.5l0.5-0.3V153h-2.3C167.9,153,167.3,153.2,166.5,153.7z M168.9,141.9
				c0.1,0.2,0.4,0.3,0.9,0.3c0-0.4,1.2-0.6,3.7-0.7v-0.7h-1.4C170,141.3,168.9,141.7,168.9,141.9z M168.9,146.5l0.9,0.2
				c1-0.2,1.8-0.3,2.3-0.3c0.2,0.3,1,0.6,2.3,0.8c0.1-0.2,0.4-0.3,0.9-0.3h2.3v-0.2c0-0.2-0.5-0.3-1.4-0.5h-3.3
				c-0.7,0-1.3-0.1-1.9-0.2C169.6,146.1,168.9,146.3,168.9,146.5z M170.7,131.7v0.5c0.6,0,0.9-0.1,0.9-0.3L170.7,131.7z M175.4,120
				l-0.5,0.7h1.4c0-0.2,0.3-0.4,0.9-0.7H175.4z M176.3,123.3h1.9V123h-0.9C176.7,123,176.3,123.1,176.3,123.3z M178.7,118.5v0.3h0.5
				c0.6,0,0.9-0.1,0.9-0.3H178.7z M181,119.7c-0.3,0.8-0.5,1.2-0.5,1.3h0.5l1.4-0.3c-0.3-0.2-0.5-0.5-0.5-1H181z"/>
		</g>
	</g>
	<g>
		<path fill="#FFFFFF" d="M15.6,164.8c0,1.1-0.3,2-1,2.6s-1.7,0.9-3,0.9h-0.9v3.7H8.4v-10.4h3.3c1.3,0,2.2,0.3,2.9,0.8
			C15.3,162.9,15.6,163.7,15.6,164.8z M10.6,166.4h0.7c0.7,0,1.2-0.1,1.5-0.4c0.3-0.3,0.5-0.7,0.5-1.2c0-0.5-0.1-0.9-0.4-1.1
			c-0.3-0.2-0.7-0.4-1.3-0.4h-1V166.4z"/>
		<path fill="#FFFFFF" d="M23.6,171.9l-0.4-1.1h-0.1c-0.4,0.5-0.7,0.8-1.1,1c-0.4,0.2-0.9,0.3-1.5,0.3c-0.8,0-1.4-0.2-1.8-0.7
			c-0.4-0.4-0.7-1.1-0.7-1.9c0-0.8,0.3-1.5,0.9-1.9c0.6-0.4,1.5-0.6,2.7-0.7l1.4,0v-0.3c0-0.8-0.4-1.2-1.2-1.2
			c-0.6,0-1.4,0.2-2.2,0.6l-0.7-1.5c0.9-0.5,1.9-0.7,3-0.7c1.1,0,1.9,0.2,2.5,0.7c0.6,0.5,0.9,1.2,0.9,2.1v5.3H23.6z M22.9,168.2
			l-0.8,0c-0.6,0-1.1,0.1-1.4,0.3c-0.3,0.2-0.5,0.5-0.5,1c0,0.6,0.4,0.9,1.1,0.9c0.5,0,0.9-0.1,1.2-0.4c0.3-0.3,0.5-0.7,0.5-1.2
			V168.2z"/>
		<path fill="#FFFFFF" d="M28.3,161.9c0-0.7,0.4-1.1,1.2-1.1s1.2,0.4,1.2,1.1c0,0.3-0.1,0.6-0.3,0.8c-0.2,0.2-0.5,0.3-0.9,0.3
			C28.7,163,28.3,162.6,28.3,161.9z M30.6,171.9h-2.2v-8h2.2V171.9z"/>
		<path fill="#FFFFFF" d="M41.3,171.9h-2.2v-4.6c0-0.6-0.1-1-0.3-1.3s-0.5-0.4-1-0.4c-0.6,0-1,0.2-1.3,0.6s-0.4,1.1-0.4,2v3.7h-2.2
			v-8h1.7l0.3,1H36c0.2-0.4,0.6-0.7,1-0.9c0.4-0.2,0.9-0.3,1.4-0.3c0.9,0,1.6,0.3,2.1,0.8c0.5,0.5,0.7,1.2,0.7,2.2V171.9z"/>
		<path fill="#FFFFFF" d="M48,170.3c0.4,0,0.8-0.1,1.4-0.2v1.6c-0.5,0.2-1.2,0.4-2,0.4c-0.9,0-1.5-0.2-1.9-0.7
			c-0.4-0.4-0.6-1.1-0.6-2v-3.8h-1v-0.9L45,164l0.6-1.7H47v1.7h2.2v1.6H47v3.8c0,0.3,0.1,0.5,0.3,0.7
			C47.4,170.3,47.7,170.3,48,170.3z"/>
		<path fill="#FFFFFF" d="M51.9,161.9c0-0.7,0.4-1.1,1.2-1.1s1.2,0.4,1.2,1.1c0,0.3-0.1,0.6-0.3,0.8c-0.2,0.2-0.5,0.3-0.9,0.3
			C52.3,163,51.9,162.6,51.9,161.9z M54.2,171.9H52v-8h2.2V171.9z"/>
		<path fill="#FFFFFF" d="M64.9,171.9h-2.2v-4.6c0-0.6-0.1-1-0.3-1.3s-0.5-0.4-1-0.4c-0.6,0-1,0.2-1.3,0.6s-0.4,1.1-0.4,2v3.7h-2.2
			v-8h1.7l0.3,1h0.1c0.2-0.4,0.6-0.7,1-0.9c0.4-0.2,0.9-0.3,1.4-0.3c0.9,0,1.6,0.3,2.1,0.8c0.5,0.5,0.7,1.2,0.7,2.2V171.9z"/>
		<path fill="#FFFFFF" d="M75.1,164v1.1l-1.2,0.3c0.2,0.4,0.3,0.8,0.3,1.2c0,0.9-0.3,1.5-0.9,2c-0.6,0.5-1.4,0.7-2.5,0.7l-0.4,0
			l-0.3,0c-0.2,0.2-0.3,0.4-0.3,0.6c0,0.3,0.4,0.5,1.2,0.5h1.4c0.9,0,1.5,0.2,2,0.6c0.5,0.4,0.7,0.9,0.7,1.7c0,0.9-0.4,1.6-1.2,2.2
			c-0.8,0.5-1.9,0.8-3.3,0.8c-1.1,0-2-0.2-2.5-0.6c-0.6-0.4-0.9-0.9-0.9-1.6c0-0.5,0.1-0.9,0.4-1.2c0.3-0.3,0.7-0.6,1.3-0.7
			c-0.2-0.1-0.4-0.3-0.6-0.5s-0.2-0.4-0.2-0.7c0-0.3,0.1-0.6,0.3-0.8c0.2-0.2,0.4-0.4,0.8-0.6c-0.4-0.2-0.7-0.5-1-0.9
			c-0.2-0.4-0.4-0.9-0.4-1.4c0-0.9,0.3-1.5,0.8-2c0.6-0.5,1.4-0.7,2.4-0.7c0.2,0,0.5,0,0.8,0.1c0.3,0,0.5,0.1,0.6,0.1H75.1z M69,173
			c0,0.3,0.1,0.5,0.4,0.7s0.7,0.3,1.2,0.3c0.8,0,1.4-0.1,1.8-0.3c0.4-0.2,0.7-0.5,0.7-0.9c0-0.3-0.1-0.5-0.4-0.6
			c-0.3-0.1-0.7-0.2-1.2-0.2h-1.1c-0.4,0-0.7,0.1-1,0.3C69.1,172.5,69,172.7,69,173z M69.8,166.6c0,0.4,0.1,0.8,0.3,1
			c0.2,0.3,0.5,0.4,0.9,0.4c0.4,0,0.7-0.1,0.9-0.4c0.2-0.3,0.3-0.6,0.3-1c0-1-0.4-1.4-1.2-1.4C70.2,165.1,69.8,165.6,69.8,166.6z"/>
		<path fill="#FFFFFF" d="M92.2,171.9h-2.7l-0.8-0.8c-0.9,0.6-1.9,0.9-3.1,0.9c-1.2,0-2.1-0.3-2.8-0.8c-0.7-0.5-1-1.2-1-2.2
			c0-0.6,0.1-1.2,0.4-1.7c0.3-0.5,0.8-0.9,1.5-1.3c-0.4-0.4-0.6-0.8-0.8-1.2s-0.2-0.8-0.2-1.2c0-0.7,0.3-1.3,0.8-1.7
			c0.6-0.4,1.3-0.7,2.2-0.7c0.9,0,1.6,0.2,2.1,0.6c0.5,0.4,0.8,1,0.8,1.6c0,0.6-0.2,1.1-0.5,1.5s-0.9,0.9-1.6,1.3l2,2
			c0.3-0.6,0.6-1.3,0.9-2.1h2.3c-0.2,0.6-0.4,1.3-0.7,1.9c-0.3,0.6-0.6,1.1-1,1.6L92.2,171.9z M84.1,168.9c0,0.4,0.2,0.7,0.5,1
			c0.3,0.2,0.7,0.4,1.2,0.4c0.6,0,1.1-0.1,1.6-0.4l-2.4-2.3c-0.3,0.2-0.5,0.4-0.7,0.7S84.1,168.6,84.1,168.9z M86.7,163.9
			c0-0.3-0.1-0.4-0.3-0.6c-0.2-0.1-0.4-0.2-0.7-0.2c-0.3,0-0.6,0.1-0.8,0.2c-0.2,0.2-0.3,0.4-0.3,0.6c0,0.4,0.2,0.9,0.7,1.4
			c0.4-0.2,0.7-0.5,0.9-0.7C86.6,164.4,86.7,164.2,86.7,163.9z"/>
		<path fill="#FFFFFF" d="M108.1,166.6c0,1.7-0.5,3-1.5,3.9c-1,0.9-2.4,1.4-4.2,1.4h-2.9v-10.4h3.3c1.7,0,3,0.4,4,1.3
			C107.6,163.8,108.1,165,108.1,166.6z M105.8,166.7c0-2.2-1-3.3-3-3.3h-1.2v6.8h0.9C104.8,170.1,105.8,169,105.8,166.7z"/>
		<path fill="#FFFFFF" d="M114.8,172.1c-1.3,0-2.3-0.4-3-1.1c-0.7-0.7-1.1-1.7-1.1-3c0-1.3,0.3-2.4,1-3.1c0.7-0.7,1.6-1.1,2.8-1.1
			c1.1,0,2,0.3,2.6,1c0.6,0.6,0.9,1.5,0.9,2.7v1.1h-5.1c0,0.6,0.2,1.1,0.5,1.4c0.3,0.3,0.8,0.5,1.4,0.5c0.5,0,0.9,0,1.4-0.1
			s0.9-0.3,1.3-0.5v1.7c-0.4,0.2-0.8,0.3-1.2,0.4C115.9,172,115.4,172.1,114.8,172.1z M114.5,165.4c-0.5,0-0.8,0.1-1.1,0.4
			c-0.3,0.3-0.4,0.7-0.4,1.2h3c0-0.5-0.1-1-0.4-1.2C115.3,165.5,114.9,165.4,114.5,165.4z"/>
		<path fill="#FFFFFF" d="M124.1,172.1c-2.5,0-3.7-1.4-3.7-4.1c0-1.4,0.3-2.4,1-3.1c0.7-0.7,1.6-1.1,2.9-1.1c0.9,0,1.7,0.2,2.5,0.5
			l-0.6,1.7c-0.3-0.1-0.7-0.3-1-0.3s-0.6-0.1-0.9-0.1c-1.1,0-1.7,0.8-1.7,2.4c0,1.6,0.6,2.3,1.7,2.3c0.4,0,0.8-0.1,1.2-0.2
			s0.7-0.3,1.1-0.5v1.9c-0.4,0.2-0.7,0.4-1.1,0.5C125.1,172,124.7,172.1,124.1,172.1z"/>
		<path fill="#FFFFFF" d="M136.7,167.9c0,1.3-0.3,2.3-1,3c-0.7,0.7-1.6,1.1-2.9,1.1c-0.8,0-1.4-0.2-2-0.5c-0.6-0.3-1-0.8-1.3-1.4
			c-0.3-0.6-0.5-1.4-0.5-2.2c0-1.3,0.3-2.3,1-3c0.7-0.7,1.6-1.1,2.9-1.1c0.8,0,1.4,0.2,2,0.5s1,0.8,1.3,1.4
			C136.5,166.4,136.7,167.1,136.7,167.9z M131.2,167.9c0,0.8,0.1,1.4,0.4,1.8c0.3,0.4,0.7,0.6,1.3,0.6c0.6,0,1-0.2,1.2-0.6
			s0.4-1,0.4-1.8c0-0.8-0.1-1.4-0.4-1.8c-0.3-0.4-0.7-0.6-1.3-0.6c-0.6,0-1,0.2-1.3,0.6C131.3,166.6,131.2,167.1,131.2,167.9z"/>
		<path fill="#FFFFFF" d="M144,163.8c0.3,0,0.5,0,0.7,0.1l-0.2,2c-0.2,0-0.4-0.1-0.6-0.1c-0.7,0-1.2,0.2-1.6,0.5
			c-0.4,0.4-0.6,0.9-0.6,1.5v4h-2.2v-8h1.6l0.3,1.3h0.1c0.2-0.4,0.6-0.8,1-1.1S143.5,163.8,144,163.8z"/>
		<path fill="#FFFFFF" d="M152.3,171.9l-0.4-1.1h-0.1c-0.4,0.5-0.7,0.8-1.1,1c-0.4,0.2-0.9,0.3-1.5,0.3c-0.8,0-1.4-0.2-1.8-0.7
			c-0.4-0.4-0.7-1.1-0.7-1.9c0-0.8,0.3-1.5,0.9-1.9c0.6-0.4,1.5-0.6,2.7-0.7l1.4,0v-0.3c0-0.8-0.4-1.2-1.2-1.2
			c-0.6,0-1.4,0.2-2.2,0.6l-0.7-1.5c0.9-0.5,1.9-0.7,3-0.7c1.1,0,1.9,0.2,2.5,0.7c0.6,0.5,0.9,1.2,0.9,2.1v5.3H152.3z M151.7,168.2
			l-0.8,0c-0.6,0-1.1,0.1-1.4,0.3c-0.3,0.2-0.5,0.5-0.5,1c0,0.6,0.4,0.9,1.1,0.9c0.5,0,0.9-0.1,1.2-0.4c0.3-0.3,0.5-0.7,0.5-1.2
			V168.2z"/>
		<path fill="#FFFFFF" d="M160.5,170.3c0.4,0,0.8-0.1,1.4-0.2v1.6c-0.5,0.2-1.2,0.4-2,0.4c-0.9,0-1.5-0.2-1.9-0.7
			c-0.4-0.4-0.6-1.1-0.6-2v-3.8h-1v-0.9l1.2-0.7l0.6-1.7h1.4v1.7h2.2v1.6h-2.2v3.8c0,0.3,0.1,0.5,0.3,0.7
			C160,170.3,160.2,170.3,160.5,170.3z"/>
		<path fill="#FFFFFF" d="M164.5,161.9c0-0.7,0.4-1.1,1.2-1.1s1.2,0.4,1.2,1.1c0,0.3-0.1,0.6-0.3,0.8c-0.2,0.2-0.5,0.3-0.9,0.3
			C164.9,163,164.5,162.6,164.5,161.9z M166.8,171.9h-2.2v-8h2.2V171.9z"/>
		<path fill="#FFFFFF" d="M177.5,171.9h-2.2v-4.6c0-0.6-0.1-1-0.3-1.3s-0.5-0.4-1-0.4c-0.6,0-1,0.2-1.3,0.6s-0.4,1.1-0.4,2v3.7h-2.2
			v-8h1.7l0.3,1h0.1c0.2-0.4,0.6-0.7,1-0.9c0.4-0.2,0.9-0.3,1.4-0.3c0.9,0,1.6,0.3,2.1,0.8c0.5,0.5,0.7,1.2,0.7,2.2V171.9z"/>
		<path fill="#FFFFFF" d="M187.7,164v1.1l-1.2,0.3c0.2,0.4,0.3,0.8,0.3,1.2c0,0.9-0.3,1.5-0.9,2c-0.6,0.5-1.4,0.7-2.5,0.7l-0.4,0
			l-0.3,0c-0.2,0.2-0.3,0.4-0.3,0.6c0,0.3,0.4,0.5,1.2,0.5h1.4c0.9,0,1.5,0.2,2,0.6c0.5,0.4,0.7,0.9,0.7,1.7c0,0.9-0.4,1.6-1.2,2.2
			c-0.8,0.5-1.9,0.8-3.3,0.8c-1.1,0-2-0.2-2.5-0.6c-0.6-0.4-0.9-0.9-0.9-1.6c0-0.5,0.1-0.9,0.4-1.2c0.3-0.3,0.7-0.6,1.3-0.7
			c-0.2-0.1-0.4-0.3-0.6-0.5s-0.2-0.4-0.2-0.7c0-0.3,0.1-0.6,0.3-0.8c0.2-0.2,0.4-0.4,0.8-0.6c-0.4-0.2-0.7-0.5-1-0.9
			c-0.2-0.4-0.4-0.9-0.4-1.4c0-0.9,0.3-1.5,0.8-2c0.6-0.5,1.4-0.7,2.4-0.7c0.2,0,0.5,0,0.8,0.1c0.3,0,0.5,0.1,0.6,0.1H187.7z
			 M181.6,173c0,0.3,0.1,0.5,0.4,0.7s0.7,0.3,1.2,0.3c0.8,0,1.4-0.1,1.8-0.3c0.4-0.2,0.7-0.5,0.7-0.9c0-0.3-0.1-0.5-0.4-0.6
			c-0.3-0.1-0.7-0.2-1.2-0.2H183c-0.4,0-0.7,0.1-1,0.3C181.7,172.5,181.6,172.7,181.6,173z M182.4,166.6c0,0.4,0.1,0.8,0.3,1
			c0.2,0.3,0.5,0.4,0.9,0.4c0.4,0,0.7-0.1,0.9-0.4c0.2-0.3,0.3-0.6,0.3-1c0-1-0.4-1.4-1.2-1.4C182.8,165.1,182.4,165.6,182.4,166.6z
			"/>
	</g>
</g>
<g>
	<path fill="#D0D3D0" d="M191.7,97.9c0.3,0,0.6,0,0.9,0c0.7-8,1.5-16.1,1.6-16.4l-0.1,0l0.5-4.9l-28.2,2.7l-1.6,18.5
		C173.7,97.7,182.7,98,191.7,97.9z"/>
	<polygon fill="#A1192B" points="151.9,24.3 176.2,37.3 207.1,72.2 193.5,72.9 197.6,77.3 166.6,79.1 167.1,74.6 178,75.8 
		178.5,72.3 	"/>
	<path fill="#EEEEEE" d="M163.5,97.7c1,0,2,0,3.1,0l3.2-34.1L138.9,16L96,70.1l2.7,28.7h17.9C132.2,97.8,148,97.7,163.5,97.7z"/>
	<path fill="#C1C8C4" d="M77.9,99.3h21l-2.7-28.8l-80.9,8.2l4,20.6h4.4c-0.4-3-0.6-5.7-0.5-7.7c0.1-1.6,2.4-2.7,3.7-3
		c1.6-0.4,4.9,0.2,5.7,2.8c0.7,2.1,1.4,4.9,2.1,7.9h12.1c3.8-0.7,8.1-0.6,11.9,0h17.2C76.6,99.3,77.3,99.2,77.9,99.3z"/>
	<polygon fill="#BCC8C3" points="30.9,40.2 23.4,67.6 50.5,65.6 	"/>
	<polygon fill="#C8C8C8" points="15.8,72.2 23.4,67.6 30.9,40.2 27.2,35.1 	"/>
	<polygon fill="#8F222E" points="118.6,14.7 93.2,11.2 88.6,23.2 	"/>
	<polygon fill="#F2F7FC" points="143.2,12.7 179.2,76.1 179.7,72.6 143,7.8 	"/>
	<polygon fill="#C8C8C8" points="168.5,75.8 179.2,76 142.8,10.7 136.3,16.9 	"/>
	<polygon fill="#F2F7FC" points="143.6,10.8 92.7,74.6 92.3,71.7 143,7.8 	"/>
	<polygon fill="#D9EAF9" points="27,35.6 15.8,72.2 13.5,72.5 25.8,30.8 	"/>
	<polygon fill="#D9EAF9" points="2.3,77.7 92.3,71.7 92.8,74.6 2.4,79.1 	"/>
	<polygon fill="#E0E0E0" points="66.6,3.3 69.8,38.6 88.9,14.6 88.2,7 	"/>
	<polygon fill="#BCC8C3" points="63.9,4.7 66.6,3.3 69.8,38.6 67,39.4 	"/>
	<polygon fill="#878787" points="66.3,0 66.6,3.3 88.2,7 88.4,3.7 	"/>
	<polygon fill="#E6E6E6" points="168.5,78 197.6,77.2 197.5,78.8 168.3,80.3 	"/>
	<polygon fill="#E6E6E6" points="193.6,73 207,72.1 206.9,73.7 195.1,74.5 	"/>
	<polygon fill="#A1192B" points="92.3,71.7 143,7.8 88.6,23.2 93.2,11.2 88.5,10.2 88.9,14.6 69.8,38.7 67.3,39.2 65.9,27.1 
		58.7,33.6 25.7,30.8 56.1,69.1 52.7,69.3 49.6,65.1 40.5,66 23.4,67.7 15.6,72.3 13.5,72.5 15.4,66.2 2.3,77.7 	"/>
	<polygon fill="#BC0027" points="25.7,30.8 58.7,33.6 56.2,69.1 	"/>
	<polygon fill="#BDBDBD" points="199.8,74.2 203.1,73.9 203,75.8 199.6,76.1 	"/>
	<polygon fill="#A2A2A2" points="197.2,74.4 199.8,74.2 199.7,76 197.2,76 	"/>
	<polygon fill="#88232F" points="52.8,69.4 45.6,65.7 49.7,65.2 	"/>
	<polygon fill="#B2BEBA" points="45.6,65.6 30,44.3 30.9,40.6 49.6,65.1 	"/>
	<polygon fill="#C0C0C0" points="30,44.3 27.2,35.9 30.9,40.6 	"/>
	<polygon fill="#8F222E" points="67.3,39.2 62,30.7 66,27.1 	"/>
	<g>
		<polygon fill="#AEAEAE" points="38.3,49.3 31.5,50.6 33.8,66.1 40.4,66.1 40.8,66 38.8,49.5 		"/>
		<polygon fill="#FFFFFF" points="31.2,50.6 33.6,66.8 40.4,66.2 38.2,49.2 		"/>
		
			<linearGradient id="SVGID_2_" gradientUnits="userSpaceOnUse" x1="32.4757" y1="69.6781" x2="19.5836" y2="53.1298" gradientTransform="matrix(0.9991 -4.326912e-002 4.326912e-002 0.9991 7.9816 -1.2695)">
			<stop  offset="1.648350e-002" style="stop-color:#738A9E"/>
			<stop  offset="0.2198" style="stop-color:#CDE3F8"/>
			<stop  offset="0.3956" style="stop-color:#87A6BF"/>
			<stop  offset="0.5934" style="stop-color:#9BC0E1"/>
			<stop  offset="1" style="stop-color:#32526A"/>
		</linearGradient>
		<polygon fill="url(#SVGID_2_)" points="31.9,51.3 33.8,65.6 39.4,65 37.6,50.2 		"/>
	</g>
	<polygon fill="#E8E8E8" points="33.8,50 34.3,50.8 37.6,50.2 38.3,56 39.1,56.7 38.3,50.4 37.6,49.3 	"/>
	<g>
		<g>
			<polygon fill="#8D8D8D" points="95.2,43.3 86.3,45 76.8,57.5 77.6,58.2 87.6,57.7 95.5,44.2 			"/>
			<polygon fill="#FFFFFF" points="85.6,44.6 76.9,57.5 86.8,56.9 95.2,43.3 			"/>
			
				<linearGradient id="SVGID_3_" gradientUnits="userSpaceOnUse" x1="67.6511" y1="55.4061" x2="82.8425" y2="55.4061" gradientTransform="matrix(0.9991 -4.326912e-002 4.326912e-002 0.9991 7.9816 -1.2695)">
				<stop  offset="1.648350e-002" style="stop-color:#738A9E"/>
				<stop  offset="0.2143" style="stop-color:#CDE3F8"/>
				<stop  offset="0.5549" style="stop-color:#BCD4EA"/>
				<stop  offset="0.6758" style="stop-color:#87A6BF"/>
				<stop  offset="0.8571" style="stop-color:#9BC0E1"/>
				<stop  offset="1" style="stop-color:#6D8CA7"/>
			</linearGradient>
			<polygon fill="url(#SVGID_3_)" points="86,45.4 78.2,57 86,56.2 92.9,44.6 			"/>
		</g>
		<polygon fill="#8D8D8D" points="78.8,56.9 86.4,45.8 86,45.4 78.2,57 		"/>
		<polygon fill="#717F8A" points="92.9,44.6 92.6,45.1 86.4,45.8 86,45.4 		"/>
	</g>
	<g>
		<path fill="#A0A0A0" d="M151.3,97.8l0.8-14.5l-33.8,1.4l-1.3,0.3l1.2,13.8C129.2,98.1,140.3,97.8,151.3,97.8z"/>
		<path fill="#FFFFFF" d="M152.5,97.8l0.8-14.6l-35,1.5l1.2,13.9C130.4,98,141.5,97.8,152.5,97.8z"/>
		
			<linearGradient id="SVGID_4_" gradientUnits="userSpaceOnUse" x1="118.647" y1="90.8426" x2="135.278" y2="112.1824" gradientTransform="matrix(0.9991 -4.326912e-002 4.326912e-002 0.9991 7.9816 -1.2695)">
			<stop  offset="1.648350e-002" style="stop-color:#738A9E"/>
			<stop  offset="0.2198" style="stop-color:#CDE3F8"/>
			<stop  offset="0.3956" style="stop-color:#87A6BF"/>
			<stop  offset="0.5934" style="stop-color:#9BC0E1"/>
			<stop  offset="1" style="stop-color:#6D8CA7"/>
		</linearGradient>
		<path fill="url(#SVGID_4_)" d="M151.1,97.8l0.7-12.9l-31.2,1.3l1,12.3C131.4,98,141.3,97.8,151.1,97.8z"/>
		<path fill="#9CA7AD" d="M151.1,97.8l0.7-12.9l-2.9,0.1l-0.3,12.8C149.4,97.8,150.3,97.8,151.1,97.8z"/>
		<path fill="#9CA7AD" d="M143.1,97.8L143,85.2l-1.3,0l0,12.7C142.2,97.9,142.7,97.9,143.1,97.8z"/>
		<path fill="#FFFFFF" d="M143.5,97.8l-0.1-12.7l-1.3,0l0,12.7C142.6,97.9,143.1,97.8,143.5,97.8z"/>
		<path fill="#9CA7AD" d="M132,98.1l-0.8-12.4l-1.3,0.1l0.8,12.3C131.1,98.1,131.5,98.1,132,98.1z"/>
		<path fill="#FFFFFF" d="M132.4,98.1l-0.8-12.4l-1.3,0.1l0.8,12.4C131.5,98.1,131.9,98.1,132.4,98.1z"/>
	</g>
	<g>
		<path fill="#8D8D8D" d="M58,99.2l-1-9.4L56,89.6l-9.5,0.9l1.4,8.5C51.2,98.6,54.7,98.7,58,99.2z"/>
		<path fill="#FFFFFF" d="M57,99l-1-9.4l-10.4,0.9l1.5,8.6C50.2,98.7,53.7,98.7,57,99z"/>
		
			<linearGradient id="SVGID_5_" gradientUnits="userSpaceOnUse" x1="37.51" y1="91.2949" x2="43.4342" y2="111.3861" gradientTransform="matrix(0.9991 -4.326912e-002 4.326912e-002 0.9991 7.9816 -1.2695)">
			<stop  offset="1.648350e-002" style="stop-color:#738A9E"/>
			<stop  offset="0.2198" style="stop-color:#CDE3F8"/>
			<stop  offset="0.3956" style="stop-color:#87A6BF"/>
			<stop  offset="0.5934" style="stop-color:#9BC0E1"/>
			<stop  offset="1" style="stop-color:#32526A"/>
		</linearGradient>
		<path fill="url(#SVGID_5_)" d="M56.1,98.9l-0.9-8.2L47,91.4l1.2,7.6C50.7,98.7,53.4,98.7,56.1,98.9z"/>
		<path fill="#8D8D8D" d="M48.5,99l-1.1-7.5L47,91.4l1.2,7.6C48.2,99,48.3,99,48.5,99z"/>
		<path fill="#8D8D8D" d="M52.4,98.8l-1.1-7.5l0,0c0-0.1,0-0.1,0-0.1c-0.1-0.1-0.2,0-0.4,0l0,0c-0.2,0-0.4,0-0.4,0.2l1.1,7.4
			C51.8,98.8,52.1,98.8,52.4,98.8z"/>
		<path fill="#FFFFFF" d="M52.1,98.8l-1.2-7.6c0-0.2-0.2-0.4-0.5-0.3c-0.2,0-0.4,0.2-0.4,0.4l1.1,7.5C51.5,98.8,51.8,98.8,52.1,98.8
			z"/>
	</g>
	<g>
		<path fill="#B5B5B5" d="M126.1,47.4c0,0,1.8-5.4,9.6-5.9c5.3-0.3,8.7,6.4,8.7,6.4l1.1,25L128,73.6L126.1,47.4z"/>
		<path fill="#FFFFFF" d="M126.7,47.2c0,0,1.8-5.4,9.6-5.9c5.3-0.3,8.7,6.4,8.7,6.4l0.8,24.6l-17.2,0.6L126.7,47.2z"/>
		
			<linearGradient id="SVGID_6_" gradientUnits="userSpaceOnUse" x1="120.2307" y1="54.9431" x2="128.6173" y2="72.6196" gradientTransform="matrix(0.9991 -4.326912e-002 4.326912e-002 0.9991 7.9816 -1.2695)">
			<stop  offset="1.648350e-002" style="stop-color:#738A9E"/>
			<stop  offset="0.2198" style="stop-color:#CDE3F8"/>
			<stop  offset="0.3956" style="stop-color:#87A6BF"/>
			<stop  offset="0.5934" style="stop-color:#9BC0E1"/>
			<stop  offset="1" style="stop-color:#4A718C"/>
		</linearGradient>
		<path fill="url(#SVGID_6_)" d="M128.7,48.6c0,0,1.4-5,7.8-5.5c4.3-0.3,7.2,5.9,7.2,5.9l0.8,22.8l-14,0.5L128.7,48.6z"/>
		<path fill="#B3BFC6" d="M130.1,46.2c0,0,9.1-4.2,10.9,3.4l0.8,20.4l2.8,0c0,0-0.7-19.4-0.9-20.8C143.1,46.3,136.5,38.7,130.1,46.2
			z"/>
		<polygon fill="#FFFFFF" points="129.1,70.2 145.4,69.8 145.6,71.9 129.2,72.6 		"/>
		<g>
			<polygon fill="#9CA7AD" points="134.4,44.5 135.8,44.5 137.1,70 135.7,70.1 			"/>
			<polygon fill="#838D92" points="128.9,52.5 128.8,51.2 142.4,52 142.4,52.9 141.9,53.1 135.4,52.9 135.4,52.5 134.8,52.9 
				128.9,52.7 			"/>
			<polygon fill="#838D92" points="129.4,59.2 129.3,57.5 142.7,58.1 142.8,59.1 142.2,59.3 135.8,59.2 135.8,59 135.1,59.2 
				129.4,59.2 			"/>
			<polygon fill="#838D92" points="129.8,65.4 129.7,64 142.4,64.3 143,65.2 142.5,65.3 136.1,65.5 136.1,65.3 135.5,65.5 
				129.9,65.6 			"/>
		</g>
		<g>
			<polygon fill="#FFFFFF" points="135,44.3 136.3,44.3 137.7,70.2 136.4,70.3 			"/>
			<polygon fill="#FFFFFF" points="128.6,52.5 128.5,50.8 142.4,51.8 142.4,52.9 128.5,52.1 			"/>
			<polygon fill="#FFFFFF" points="129.3,58.8 129.3,57.4 142.7,58 142.8,59.1 129.4,58.8 			"/>
			<polygon fill="#FFFFFF" points="129.7,65.3 129.6,63.9 143,64.1 143,65.1 129.7,65.3 			"/>
		</g>
		<polygon fill="#8D9298" points="128,73.6 128.7,72.8 145.8,72.2 145.5,72.8 		"/>
	</g>
	<g>
		<path fill="#8D8D8D" d="M73.5,99.4c2.1-0.1,4.1-0.2,6.2,0L78.6,89l-1-0.1l-10.1,1l1.5,9.7C70.6,99.4,72,99.4,73.5,99.4z"/>
		<path fill="#FFFFFF" d="M73.5,99.4c1.7-0.1,3.4-0.2,5.2-0.1l-1.1-10.4l-11.1,0.6l1.7,10.1C70,99.5,71.7,99.4,73.5,99.4z"/>
		
			<linearGradient id="SVGID_7_" gradientUnits="userSpaceOnUse" x1="57.5344" y1="91.473" x2="66.0878" y2="110.3945" gradientTransform="matrix(0.9991 -4.326912e-002 4.326912e-002 0.9991 7.9816 -1.2695)">
			<stop  offset="1.648350e-002" style="stop-color:#738A9E"/>
			<stop  offset="0.2198" style="stop-color:#CDE3F8"/>
			<stop  offset="0.3956" style="stop-color:#87A6BF"/>
			<stop  offset="0.5934" style="stop-color:#9BC0E1"/>
			<stop  offset="1" style="stop-color:#32526A"/>
		</linearGradient>
		<path fill="url(#SVGID_7_)" d="M73.5,99.4c1.4-0.1,2.8-0.1,4.2-0.1l-1-9.2l-8.9,0.6l1.4,8.9C70.7,99.4,72.1,99.4,73.5,99.4z"/>
		<path fill="#8D8D8D" d="M71.9,91.6l1.1,7.8c0.2,0,0.3,0,0.5,0c0.1,0,0.3,0,0.4,0l-1.2-7.8l0,0c0-0.1-0.2-1.2-0.2-1.2
			c-0.1-0.1-0.4,0-0.6,0l0.1,1.1C71.8,91.4,71.9,91.4,71.9,91.6z"/>
		<path fill="#FFFFFF" d="M73.5,99.4l-1.4-8.9c0-0.2-0.2-0.4-0.5-0.3c-0.2,0-0.4,0.2-0.4,0.4l1.4,8.9C73,99.4,73.2,99.4,73.5,99.4z"
			/>
		<path fill="#8D8D8D" d="M69.6,99.5l-1.5-8.8l-0.2,0l1.4,8.9C69.4,99.5,69.5,99.5,69.6,99.5z"/>
	</g>
	<polygon fill="#B4B4B5" points="143.1,11.4 140.3,24.2 137.4,18.6 	"/>
	<polygon fill="#D7D7D7" points="137.4,18.6 140.3,24.2 97.1,79.9 96.1,70.2 	"/>
	<polygon fill="#B4B4B5" points="15.3,78.4 92.8,74.6 96,70.6 97.1,80.8 16.3,83.9 	"/>
	<polygon fill="#D9EAF9" points="25.7,30.8 56.7,69.3 52.9,69.4 27,35.6 	"/>
	<polygon fill="#BDBDBD" points="168.3,80.3 194.3,78.9 194.1,82.2 167.9,84.4 	"/>
	<polygon fill="#88232F" points="13.5,72.5 11.1,70 15.4,66.2 	"/>
	<path fill="#E4E3DC" d="M200.8,97.2l2.4-23.7l-3.5,0.3l-2.4,23.7C198.5,97.4,199.6,97.3,200.8,97.2z"/>
	<path fill="#B5B5B5" d="M27.6,99.3c-0.7-3.5-1.2-6.2-1.5-7.1c-0.8-2.9,2.2-4,2.2-4c-3.7-0.2-5.5,2.1-5.8,4.5
		c-0.1,0.7,0.3,3.2,0.9,6.5H27.6z"/>
	<path fill="#CFCFCF" d="M197.4,97.5l2.5-23.8l-2.6,0.2l-1.9,23.7C196,97.6,196.7,97.6,197.4,97.5z"/>
</g>
<g>
	<defs>
		<filter id="Adobe_OpacityMaskFilter" filterUnits="userSpaceOnUse" x="279.9" y="123.3" width="88.1" height="22.5">
			<feFlood  style="flood-color:white;flood-opacity:1" result="back"/>
			<feBlend  in="SourceGraphic" in2="back" mode="normal"/>
		</filter>
	</defs>
	<mask maskUnits="userSpaceOnUse" x="279.9" y="123.3" width="88.1" height="22.5" id="SVGID_8_">
		<g filter="url(#Adobe_OpacityMaskFilter)">
			<defs>
				<filter id="Adobe_OpacityMaskFilter_1_" filterUnits="userSpaceOnUse" x="279.9" y="123.3" width="88.1" height="22.5">
					<feFlood  style="flood-color:white;flood-opacity:1" result="back"/>
					<feBlend  in="SourceGraphic" in2="back" mode="normal"/>
				</filter>
			</defs>
			<mask maskUnits="userSpaceOnUse" x="279.9" y="123.3" width="88.1" height="22.5" id="SVGID_8_">
				<g filter="url(#Adobe_OpacityMaskFilter_1_)">
				</g>
			</mask>
			
				<linearGradient id="SVGID_9_" gradientUnits="userSpaceOnUse" x1="2936.761" y1="-221.9329" x2="2936.1528" y2="-202.7807" gradientTransform="matrix(1 8.700000e-003 -8.700000e-003 1 -2614.2893 321.1608)">
				<stop  offset="0" style="stop-color:#FFFFFF"/>
				<stop  offset="0.1225" style="stop-color:#FBFBFB"/>
				<stop  offset="0.2476" style="stop-color:#EFEFEF"/>
				<stop  offset="0.374" style="stop-color:#DADADA"/>
				<stop  offset="0.5013" style="stop-color:#BDBDBD"/>
				<stop  offset="0.6295" style="stop-color:#989898"/>
				<stop  offset="0.7582" style="stop-color:#6B6B6B"/>
				<stop  offset="0.8849" style="stop-color:#373737"/>
				<stop  offset="1" style="stop-color:#000000"/>
			</linearGradient>
			<path mask="url(#SVGID_8_)" fill="url(#SVGID_9_)" d="M365.8,126.1c-2.5,0.1-7.2,0.3-10.7,0.2c-0.2,0-0.4,0-0.6,0
				c-0.1,0-0.1,0-0.2,0c-0.1,0-0.3,0-0.4,0v0c-1.7-0.1-3.4-0.3-4.9-0.4c0,0,0,0-0.1,0c-0.1,0-0.2,0-0.3,0c-0.1,0-0.1,0-0.2,0
				c-0.1,0-0.2,0-0.3,0c-0.1,0-0.1,0-0.2,0c-0.1,0-0.1,0-0.2,0c-0.1,0-0.2,0-0.2,0c-0.1,0-0.1,0-0.2,0c-0.1,0-0.2,0-0.3,0
				c0,0-0.1,0-0.1,0c-0.1,0-0.2,0-0.3,0c0,0,0,0,0,0c-0.5,0-1.1,0-1.6,0c0,0,0,0-0.1,0c-0.1,0-0.2,0-0.3,0c0,0-0.1,0-0.1,0
				c-0.1,0-0.2,0-0.3,0c0,0-0.1,0-0.1,0c-0.1,0-0.2,0-0.3,0c0,0-0.1,0-0.1,0c-0.1,0-0.2,0-0.3,0c0,0-0.1,0-0.1,0c-0.1,0-0.2,0-0.3,0
				c0,0-0.1,0-0.1,0c-0.1,0-0.2,0-0.3,0c0,0-0.1,0-0.1,0c-0.1,0-0.2,0-0.2,0c-0.1,0-0.1,0-0.2,0c-0.1,0-0.2,0-0.2,0
				c-0.1,0-0.1,0-0.2,0c-0.1,0-0.2,0-0.2,0c-0.1,0-0.1,0-0.2,0c-0.1,0-0.1,0-0.2,0c-0.1,0-0.1,0-0.2,0c-0.1,0-0.1,0-0.2,0
				c-0.1,0-0.3,0.1-0.4,0.1c-0.1,0-0.1,0-0.2,0c0,0,0,0,0,0c-1,0.2-2,0.3-2.9,0.4c-0.1,0-0.1,0-0.2,0c-3.2,0-6.4-0.9-9.3-0.9
				c0,0,0,0,0,0c-0.1,0-0.2,0-0.4,0c0,0-0.1,0-0.1,0c-0.1,0-0.2,0-0.3,0c0,0-0.1,0-0.1,0c-0.1,0-0.2,0-0.3,0c-0.1,0-0.1,0-0.2,0
				c-0.1,0-0.1,0-0.2,0c0,0-0.1,0-0.1,0c0,0-0.1,0-0.1,0c0,0-0.1,0-0.1,0c-0.1,0-0.1,0-0.2,0c0,0-0.1,0-0.1,0c0,0,0,0,0,0
				c-0.1,0-0.2,0.1-0.4,0.1c-0.1,0-0.2,0.1-0.4,0.1c0,0-0.1,0-0.1,0c-0.1,0-0.2,0-0.3,0.1c0,0,0,0-0.1,0c-0.1,0-0.2,0.1-0.3,0.1
				c0,0,0,0,0,0c-0.7,0.1-1.3,0.2-2,0.3c0,0,0,0,0,0c-6.4,0.7-14-1-16.8-1.2c-1.6-0.1-2.1-0.2-2.5-0.3c0,0,0,0,0,0
				c-0.4-0.2-0.6-0.5-1.7-1.2c-2.1-1.2-2.3-0.7-4.7,0.4c-2.4,1.2-5.8,2.3-9.8,1.6c-4-0.6-5.6-1.8-6,2c-0.1,1.4-0.2,2.5-0.3,3.3
				c0,0,0,0,0,0c0,1.3-0.1,2.7-0.1,4c0,0.8,0.1,1.9,0.1,3.4c0.2,3.8,1.9,2.8,5.9,2.4c4-0.4,7.4,0.9,9.7,2.2c2.3,1.3,2.5,1.7,4.6,0.7
				c1.1-0.6,1.3-0.9,1.7-1.1c0,0,0,0,0,0c0.3-0.1,0.6-0.2,1.3-0.2c0,0,0,0,0,0c0.1,0,0.1,0,0.2,0c0,0,0,0,0,0c0.1,0,0.1,0,0.2,0
				c0,0,0,0,0.1,0c0.1,0,0.1,0,0.2,0c0,0,0.1,0,0.1,0c0,0,0.1,0,0.1,0c0.1,0,0.2,0,0.3,0c3,0,11-1.4,17.5-0.1c0,0,0,0,0,0
				c0.9,0.2,1.7,0.4,2.6,0.7c0.2,0.1,0.3,0.1,0.5,0.1c0,0,0.1,0,0.1,0c0.1,0,0.2,0.1,0.3,0.1c0.1,0,0.1,0,0.2,0c0.1,0,0.2,0,0.4,0.1
				c0,0,0.1,0,0.1,0c0.2,0,0.3,0,0.5,0.1c0,0,0,0,0,0c3,0.3,6.4-0.5,9.8-0.3v0c0.7,0,1.4,0.1,2.1,0.3c0,0,0,0,0,0
				c0.1,0,0.2,0.1,0.4,0.1c0.1,0,0.1,0,0.2,0c0.1,0,0.2,0,0.2,0.1c0.1,0,0.3,0.1,0.4,0.1c0.2,0.1,0.4,0.1,0.5,0.2c0,0,0.1,0,0.1,0
				c3.3,0.9,6.8,0.7,10.9,0.6c0,0,0,0,0,0c0.1,0,0.3,0,0.4,0c0,0,0.1,0,0.1,0c0.1,0,0.2,0,0.4,0c0.1,0,0.1,0,0.2,0
				c0.1,0,0.2,0,0.3,0c0.1,0,0.2,0,0.3,0c0.1,0,0.2,0,0.3,0c0.1,0,0.2,0,0.3,0c0.1,0,0.1,0,0.2,0c0.2,0,0.4,0,0.6,0
				c0.1,0,0.3,0,0.4,0c0.1,0,0.1,0,0.2,0c0.1,0,0.3,0,0.4,0c0,0,0.1,0,0.1,0c0.1,0,0.3,0,0.4,0c0,0,0.1,0,0.1,0c0.1,0,0.3,0,0.4,0
				c3.3,0.2,7,0.5,8.9,0.7C367,142.7,370.3,133.8,365.8,126.1z"/>
		</g>
	</mask>
	
		<linearGradient id="SVGID_10_" gradientUnits="userSpaceOnUse" x1="2936.761" y1="-221.9329" x2="2936.1528" y2="-202.7807" gradientTransform="matrix(1 8.700000e-003 -8.700000e-003 1 -2614.2893 321.1608)">
		<stop  offset="5.102041e-003" style="stop-color:#000000;stop-opacity:0.7"/>
		<stop  offset="0.127" style="stop-color:#040404;stop-opacity:0.6143"/>
		<stop  offset="0.2515" style="stop-color:#101010;stop-opacity:0.5267"/>
		<stop  offset="0.3772" style="stop-color:#252525;stop-opacity:0.4382"/>
		<stop  offset="0.5039" style="stop-color:#424242;stop-opacity:0.3491"/>
		<stop  offset="0.6313" style="stop-color:#676767;stop-opacity:0.2594"/>
		<stop  offset="0.7594" style="stop-color:#949494;stop-opacity:0.1693"/>
		<stop  offset="0.8855" style="stop-color:#C8C8C8;stop-opacity:8.056992e-002"/>
		<stop  offset="1" style="stop-color:#FFFFFF;stop-opacity:0"/>
	</linearGradient>
	<path fill="url(#SVGID_10_)" d="M365.8,126.1c-2.5,0.1-7.2,0.3-10.7,0.2c-0.2,0-0.4,0-0.6,0c-0.1,0-0.1,0-0.2,0c-0.1,0-0.3,0-0.4,0
		v0c-1.7-0.1-3.4-0.3-4.9-0.4c0,0,0,0-0.1,0c-0.1,0-0.2,0-0.3,0c-0.1,0-0.1,0-0.2,0c-0.1,0-0.2,0-0.3,0c-0.1,0-0.1,0-0.2,0
		c-0.1,0-0.1,0-0.2,0c-0.1,0-0.2,0-0.2,0c-0.1,0-0.1,0-0.2,0c-0.1,0-0.2,0-0.3,0c0,0-0.1,0-0.1,0c-0.1,0-0.2,0-0.3,0c0,0,0,0,0,0
		c-0.5,0-1.1,0-1.6,0c0,0,0,0-0.1,0c-0.1,0-0.2,0-0.3,0c0,0-0.1,0-0.1,0c-0.1,0-0.2,0-0.3,0c0,0-0.1,0-0.1,0c-0.1,0-0.2,0-0.3,0
		c0,0-0.1,0-0.1,0c-0.1,0-0.2,0-0.3,0c0,0-0.1,0-0.1,0c-0.1,0-0.2,0-0.3,0c0,0-0.1,0-0.1,0c-0.1,0-0.2,0-0.3,0c0,0-0.1,0-0.1,0
		c-0.1,0-0.2,0-0.2,0c-0.1,0-0.1,0-0.2,0c-0.1,0-0.2,0-0.2,0c-0.1,0-0.1,0-0.2,0c-0.1,0-0.2,0-0.2,0c-0.1,0-0.1,0-0.2,0
		c-0.1,0-0.1,0-0.2,0c-0.1,0-0.1,0-0.2,0c-0.1,0-0.1,0-0.2,0c-0.1,0-0.3,0.1-0.4,0.1c-0.1,0-0.1,0-0.2,0c0,0,0,0,0,0
		c-1,0.2-2,0.3-2.9,0.4c-0.1,0-0.1,0-0.2,0c-3.2,0-6.4-0.9-9.3-0.9c0,0,0,0,0,0c-0.1,0-0.2,0-0.4,0c0,0-0.1,0-0.1,0
		c-0.1,0-0.2,0-0.3,0c0,0-0.1,0-0.1,0c-0.1,0-0.2,0-0.3,0c-0.1,0-0.1,0-0.2,0c-0.1,0-0.1,0-0.2,0c0,0-0.1,0-0.1,0c0,0-0.1,0-0.1,0
		c0,0-0.1,0-0.1,0c-0.1,0-0.1,0-0.2,0c0,0-0.1,0-0.1,0c0,0,0,0,0,0c-0.1,0-0.2,0.1-0.4,0.1c-0.1,0-0.2,0.1-0.4,0.1c0,0-0.1,0-0.1,0
		c-0.1,0-0.2,0-0.3,0.1c0,0,0,0-0.1,0c-0.1,0-0.2,0.1-0.3,0.1c0,0,0,0,0,0c-0.7,0.1-1.3,0.2-2,0.3c0,0,0,0,0,0
		c-6.4,0.7-14-1-16.8-1.2c-1.6-0.1-2.1-0.2-2.5-0.3c0,0,0,0,0,0c-0.4-0.2-0.6-0.5-1.7-1.2c-2.1-1.2-2.3-0.7-4.7,0.4
		c-2.4,1.2-5.8,2.3-9.8,1.6c-4-0.6-5.6-1.8-6,2c-0.1,1.4-0.2,2.5-0.3,3.3c0,0,0,0,0,0c0,1.3-0.1,2.7-0.1,4c0,0.8,0.1,1.9,0.1,3.4
		c0.2,3.8,1.9,2.8,5.9,2.4c4-0.4,7.4,0.9,9.7,2.2c2.3,1.3,2.5,1.7,4.6,0.7c1.1-0.6,1.3-0.9,1.7-1.1c0,0,0,0,0,0
		c0.3-0.1,0.6-0.2,1.3-0.2c0,0,0,0,0,0c0.1,0,0.1,0,0.2,0c0,0,0,0,0,0c0.1,0,0.1,0,0.2,0c0,0,0,0,0.1,0c0.1,0,0.1,0,0.2,0
		c0,0,0.1,0,0.1,0c0,0,0.1,0,0.1,0c0.1,0,0.2,0,0.3,0c3,0,11-1.4,17.5-0.1c0,0,0,0,0,0c0.9,0.2,1.7,0.4,2.6,0.7
		c0.2,0.1,0.3,0.1,0.5,0.1c0,0,0.1,0,0.1,0c0.1,0,0.2,0.1,0.3,0.1c0.1,0,0.1,0,0.2,0c0.1,0,0.2,0,0.4,0.1c0,0,0.1,0,0.1,0
		c0.2,0,0.3,0,0.5,0.1c0,0,0,0,0,0c3,0.3,6.4-0.5,9.8-0.3v0c0.7,0,1.4,0.1,2.1,0.3c0,0,0,0,0,0c0.1,0,0.2,0.1,0.4,0.1
		c0.1,0,0.1,0,0.2,0c0.1,0,0.2,0,0.2,0.1c0.1,0,0.3,0.1,0.4,0.1c0.2,0.1,0.4,0.1,0.5,0.2c0,0,0.1,0,0.1,0c3.3,0.9,6.8,0.7,10.9,0.6
		c0,0,0,0,0,0c0.1,0,0.3,0,0.4,0c0,0,0.1,0,0.1,0c0.1,0,0.2,0,0.4,0c0.1,0,0.1,0,0.2,0c0.1,0,0.2,0,0.3,0c0.1,0,0.2,0,0.3,0
		c0.1,0,0.2,0,0.3,0c0.1,0,0.2,0,0.3,0c0.1,0,0.1,0,0.2,0c0.2,0,0.4,0,0.6,0c0.1,0,0.3,0,0.4,0c0.1,0,0.1,0,0.2,0c0.1,0,0.3,0,0.4,0
		c0,0,0.1,0,0.1,0c0.1,0,0.3,0,0.4,0c0,0,0.1,0,0.1,0c0.1,0,0.3,0,0.4,0c3.3,0.2,7,0.5,8.9,0.7C367,142.7,370.3,133.8,365.8,126.1z"
		/>
	<path opacity="0.27" fill="#7A7A7A" d="M273.7,131.2c-4.2-0.2-7-2.2-13.3-6.6c-2.1-1.5-4.6-3.2-7.7-5.3c-1.3-0.9-2.7-1.8-4.2-2.7
		c-0.9-0.6-1.7-1.1-2.6-1.6c-13.2-8.5-16.4-10.5-24.8-10.8c-3.9-0.1-7.9,0.1-10.6,2.7c-0.8,0.8-1.4,1.7-1.9,2.9c1.4-0.1,2.8,0,4.1,0
		c0.1-0.1,0.2-0.2,0.3-0.3c1.4-1.3,3.6-1.8,7.9-1.7c7.4,0.2,9.8,1.8,23,10.2c0.2,0.1,0.4,0.3,0.7,0.4c0.6,0.4,1.2,0.8,1.9,1.2
		c5,3.2,8.7,5.8,11.7,7.9c6.7,4.7,10,7,15.2,7.3c2.1,0.1,4.4,0.2,6.5,0.2c0,0.1,0,0.3,0,0.4c0-1.3,0.1-2.7,0.1-4
		C278,131.3,275.7,131.3,273.7,131.2z"/>
	<g>
		<g>
			
				<linearGradient id="SVGID_11_" gradientUnits="userSpaceOnUse" x1="163.6622" y1="1072.5244" x2="162.3633" y2="1163.5144" gradientTransform="matrix(8.700000e-003 -1 1 8.700000e-003 -789.6113 281.1719)">
				<stop  offset="5.454550e-002" style="stop-color:#DBB82B"/>
				<stop  offset="0.2119" style="stop-color:#FCD23A"/>
				<stop  offset="0.2204" style="stop-color:#F8CF38"/>
				<stop  offset="0.2732" style="stop-color:#E3BE2F"/>
				<stop  offset="0.3078" style="stop-color:#DBB82B"/>
				<stop  offset="0.3966" style="stop-color:#FCD23A"/>
				<stop  offset="0.4422" style="stop-color:#F8CF38"/>
				<stop  offset="0.4839" style="stop-color:#EDC633"/>
				<stop  offset="0.5236" style="stop-color:#DBB82B"/>
				<stop  offset="0.538" style="stop-color:#E4BF2F"/>
				<stop  offset="0.5709" style="stop-color:#F2CA35"/>
				<stop  offset="0.6119" style="stop-color:#FAD039"/>
				<stop  offset="0.6858" style="stop-color:#FCD23A"/>
				<stop  offset="0.7502" style="stop-color:#DBB82B"/>
				<stop  offset="0.7605" style="stop-color:#E4BF2F"/>
				<stop  offset="0.7842" style="stop-color:#F2CA35"/>
				<stop  offset="0.8137" style="stop-color:#FAD039"/>
				<stop  offset="0.8667" style="stop-color:#FCD23A"/>
				<stop  offset="0.9399" style="stop-color:#FCD23A"/>
				<stop  offset="0.9713" style="stop-color:#DBB82B"/>
				<stop  offset="0.9974" style="stop-color:#FCD23A"/>
			</linearGradient>
			<path opacity="0.55" fill="url(#SVGID_11_)" d="M360.4,138.3c3.6,0,8.6,0.5,11,0.8c1.4-3,4.7-12,0.2-19.7
				c-2.5,0.1-7.2,0.3-10.7,0.2c-5.9-0.3-10.5-1.3-14.8-0.1c-5.4,1.4-10.7-1.4-15.2-0.1c-6.9,2-16.7-0.4-20.1-0.6
				c-3.4-0.2-2.1-0.3-4.2-1.5c-2.1-1.2-2.3-0.7-4.7,0.4c-2.4,1.2-5.8,2.3-9.8,1.6c-4-0.6-5.6-1.8-6,2c-0.4,3.8-0.5,5.6-0.5,5.6h0
				c0,0,0,1.4,0.1,5.2c0.2,3.8,1.9,2.8,5.9,2.4c4-0.4,7.4,0.9,9.7,2.2c2.3,1.3,2.5,1.7,4.6,0.7c2.1-1,0.9-1.3,4.2-1.2
				c3.4,0,13.3-1.8,20.1,0.6c4.4,1.6,9.9-1,15.2,0.8C349.9,138.9,354.5,138.2,360.4,138.3z"/>
			
				<linearGradient id="SVGID_12_" gradientUnits="userSpaceOnUse" x1="163.6622" y1="1072.5244" x2="162.3633" y2="1163.5144" gradientTransform="matrix(8.700000e-003 -1 1 8.700000e-003 -789.6113 281.1719)">
				<stop  offset="5.454550e-002" style="stop-color:#DBB82B"/>
				<stop  offset="0.2119" style="stop-color:#FCD23A"/>
				<stop  offset="0.2204" style="stop-color:#F8CF38"/>
				<stop  offset="0.2732" style="stop-color:#E3BE2F"/>
				<stop  offset="0.3078" style="stop-color:#DBB82B"/>
				<stop  offset="0.3966" style="stop-color:#FCD23A"/>
				<stop  offset="0.4422" style="stop-color:#F8CF38"/>
				<stop  offset="0.4839" style="stop-color:#EDC633"/>
				<stop  offset="0.5236" style="stop-color:#DBB82B"/>
				<stop  offset="0.538" style="stop-color:#E4BF2F"/>
				<stop  offset="0.5709" style="stop-color:#F2CA35"/>
				<stop  offset="0.6119" style="stop-color:#FAD039"/>
				<stop  offset="0.6858" style="stop-color:#FCD23A"/>
				<stop  offset="0.7502" style="stop-color:#DBB82B"/>
				<stop  offset="0.7605" style="stop-color:#E4BF2F"/>
				<stop  offset="0.7842" style="stop-color:#F2CA35"/>
				<stop  offset="0.8137" style="stop-color:#FAD039"/>
				<stop  offset="0.8667" style="stop-color:#FCD23A"/>
				<stop  offset="0.9399" style="stop-color:#FCD23A"/>
				<stop  offset="0.9713" style="stop-color:#DBB82B"/>
				<stop  offset="0.9974" style="stop-color:#FCD23A"/>
			</linearGradient>
			<path opacity="0.55" fill="url(#SVGID_12_)" d="M360.4,138.3c3.6,0,8.6,0.5,11,0.8c1.4-3,4.7-12,0.2-19.7
				c-2.5,0.1-7.2,0.3-10.7,0.2c-5.9-0.3-10.5-1.3-14.8-0.1c-5.4,1.4-10.7-1.4-15.2-0.1c-6.9,2-16.7-0.4-20.1-0.6
				c-3.4-0.2-2.1-0.3-4.2-1.5c-2.1-1.2-2.3-0.7-4.7,0.4c-2.4,1.2-5.8,2.3-9.8,1.6c-4-0.6-5.6-1.8-6,2c-0.4,3.8-0.5,5.6-0.5,5.6h0
				c0,0,0,1.4,0.1,5.2c0.2,3.8,1.9,2.8,5.9,2.4c4-0.4,7.4,0.9,9.7,2.2c2.3,1.3,2.5,1.7,4.6,0.7c2.1-1,0.9-1.3,4.2-1.2
				c3.4,0,13.3-1.8,20.1,0.6c4.4,1.6,9.9-1,15.2,0.8C349.9,138.9,354.5,138.2,360.4,138.3z"/>
			
				<linearGradient id="SVGID_13_" gradientUnits="userSpaceOnUse" x1="163.6622" y1="1072.5244" x2="162.3633" y2="1163.5144" gradientTransform="matrix(8.700000e-003 -1 1 8.700000e-003 -789.6113 281.1719)">
				<stop  offset="5.454550e-002" style="stop-color:#DBB82B"/>
				<stop  offset="0.2119" style="stop-color:#FCD23A"/>
				<stop  offset="0.2204" style="stop-color:#F8CF38"/>
				<stop  offset="0.2732" style="stop-color:#E3BE2F"/>
				<stop  offset="0.3078" style="stop-color:#DBB82B"/>
				<stop  offset="0.3966" style="stop-color:#FCD23A"/>
				<stop  offset="0.4422" style="stop-color:#F8CF38"/>
				<stop  offset="0.4839" style="stop-color:#EDC633"/>
				<stop  offset="0.5236" style="stop-color:#DBB82B"/>
				<stop  offset="0.538" style="stop-color:#E4BF2F"/>
				<stop  offset="0.5709" style="stop-color:#F2CA35"/>
				<stop  offset="0.6119" style="stop-color:#FAD039"/>
				<stop  offset="0.6858" style="stop-color:#FCD23A"/>
				<stop  offset="0.7502" style="stop-color:#DBB82B"/>
				<stop  offset="0.7605" style="stop-color:#E4BF2F"/>
				<stop  offset="0.7842" style="stop-color:#F2CA35"/>
				<stop  offset="0.8137" style="stop-color:#FAD039"/>
				<stop  offset="0.8667" style="stop-color:#FCD23A"/>
				<stop  offset="0.9399" style="stop-color:#FCD23A"/>
				<stop  offset="0.9713" style="stop-color:#DBB82B"/>
				<stop  offset="0.9974" style="stop-color:#FCD23A"/>
			</linearGradient>
			<path opacity="0.55" fill="url(#SVGID_13_)" d="M360.4,138.3c3.6,0,8.6,0.5,11,0.8c1.4-3,4.7-12,0.2-19.7
				c-2.5,0.1-7.2,0.3-10.7,0.2c-5.9-0.3-10.5-1.3-14.8-0.1c-5.4,1.4-10.7-1.4-15.2-0.1c-6.9,2-16.7-0.4-20.1-0.6
				c-3.4-0.2-2.1-0.3-4.2-1.5c-2.1-1.2-2.3-0.7-4.7,0.4c-2.4,1.2-5.8,2.3-9.8,1.6c-4-0.6-5.6-1.8-6,2c-0.4,3.8-0.5,5.6-0.5,5.6h0
				c0,0,0,1.4,0.1,5.2c0.2,3.8,1.9,2.8,5.9,2.4c4-0.4,7.4,0.9,9.7,2.2c2.3,1.3,2.5,1.7,4.6,0.7c2.1-1,0.9-1.3,4.2-1.2
				c3.4,0,13.3-1.8,20.1,0.6c4.4,1.6,9.9-1,15.2,0.8C349.9,138.9,354.5,138.2,360.4,138.3z"/>
			
				<linearGradient id="SVGID_14_" gradientUnits="userSpaceOnUse" x1="153.4625" y1="1110.1166" x2="172.4861" y2="1110.1166" gradientTransform="matrix(8.700000e-003 -1 1 8.700000e-003 -789.6113 281.1719)">
				<stop  offset="1.212120e-002" style="stop-color:#DBB82B"/>
				<stop  offset="0.6061" style="stop-color:#FCD23A"/>
				<stop  offset="0.6409" style="stop-color:#F8CF38"/>
				<stop  offset="0.8578" style="stop-color:#E3BE2F"/>
				<stop  offset="1" style="stop-color:#DBB82B"/>
			</linearGradient>
			<path fill="url(#SVGID_14_)" d="M331,119.4c-6.9,2-16.7-0.4-20.1-0.6c-1.6-0.1-2.1-0.2-2.5-0.3c1.9,6.7,0.5,14-0.5,17.9
				c0.4-0.2,0.9-0.2,2.5-0.2c3.4,0,13.3-1.8,20.1,0.6c1.3,0.5,2.7,0.6,4.2,0.5c0.4-2.3,0.8-4.9,1.2-8c0.4-4.2-0.5-7.5-2.1-10.2
				C332.7,119,331.8,119.1,331,119.4z"/>
			
				<linearGradient id="SVGID_15_" gradientUnits="userSpaceOnUse" x1="153.4622" y1="1126.137" x2="172.4834" y2="1126.137" gradientTransform="matrix(8.700000e-003 -1 1 8.700000e-003 -789.6113 281.1719)">
				<stop  offset="1.212120e-002" style="stop-color:#DBB82B"/>
				<stop  offset="0.6061" style="stop-color:#FCD23A"/>
				<stop  offset="0.6409" style="stop-color:#F8CF38"/>
				<stop  offset="0.8578" style="stop-color:#E3BE2F"/>
				<stop  offset="1" style="stop-color:#DBB82B"/>
			</linearGradient>
			<path fill="url(#SVGID_15_)" d="M331,119.4c-1,0.3-2.1,0.5-3.2,0.6c1.1,6.9,0.7,12.5,0.2,16.1c0.9,0.2,1.7,0.4,2.6,0.7
				c4.4,1.6,9.9-1,15.2,0.8c0.8,0.3,1.6,0.4,2.4,0.6c0.3-2.9,0.2-6.6,0-11.4c-0.1-2.5-0.9-4.9-2-7.1
				C340.7,120.8,335.4,118.1,331,119.4z"/>
			
				<linearGradient id="SVGID_16_" gradientUnits="userSpaceOnUse" x1="153.4611" y1="1140.7571" x2="172.4831" y2="1140.7571" gradientTransform="matrix(8.700000e-003 -1 1 8.700000e-003 -789.6113 281.1719)">
				<stop  offset="1.212120e-002" style="stop-color:#DBB82B"/>
				<stop  offset="0.6061" style="stop-color:#FCD23A"/>
				<stop  offset="0.6409" style="stop-color:#F8CF38"/>
				<stop  offset="0.8578" style="stop-color:#E3BE2F"/>
				<stop  offset="1" style="stop-color:#DBB82B"/>
			</linearGradient>
			<path fill="url(#SVGID_16_)" d="M342.3,136.9c1.1,0.1,2.3,0.2,3.4,0.6c4.3,1.4,8.9,0.7,14.8,0.8c0.7,0,1.4,0,2.1,0.1
				c0.6-5-1-12-2.8-18.8c-5.3-0.3-9.6-1.1-13.6,0c-1.2,0.3-2.3,0.4-3.5,0.4C343.6,126.3,342.9,133.1,342.3,136.9z"/>
			
				<linearGradient id="SVGID_17_" gradientUnits="userSpaceOnUse" x1="153.4613" y1="1153.103" x2="172.483" y2="1153.103" gradientTransform="matrix(8.700000e-003 -1 1 8.700000e-003 -789.6113 281.1719)">
				<stop  offset="1.212120e-002" style="stop-color:#DBB82B"/>
				<stop  offset="0.6061" style="stop-color:#FCD23A"/>
				<stop  offset="0.6409" style="stop-color:#F8CF38"/>
				<stop  offset="0.8578" style="stop-color:#E3BE2F"/>
				<stop  offset="1" style="stop-color:#DBB82B"/>
			</linearGradient>
			<path fill="url(#SVGID_17_)" d="M371.6,119.4c-2.5,0.1-7.2,0.3-10.7,0.2c-1.7-0.1-3.3-0.2-4.9-0.4c1.1,6.3,0.2,15-0.3,19.1
				c1.5,0,3-0.1,4.6-0.1c3.6,0,8.6,0.5,11,0.8C372.8,136.1,376.1,127.1,371.6,119.4z"/>
		</g>
		
			<ellipse transform="matrix(8.791289e-003 -1 1 8.791289e-003 158.116 413.202)" fill="#997417" cx="287.5" cy="126.8" rx="7.2" ry="1.1"/>
		<g>
			<path fill="#231F20" d="M293.4,126.5c0,1-0.8,1.8-1.8,1.8c-0.3,0-7.1,0.2-12.4-0.1c-5.2-0.3-8.5-2.6-15.2-7.3
				c-3-2.1-6.8-4.7-11.7-7.9c-0.9-0.6-1.7-1.1-2.6-1.6c-13.2-8.4-15.5-10-23-10.2c-4.3-0.1-6.6,0.3-7.9,1.7c-1.4,1.4-2,4-2,8
				c0,1-0.8,1.8-1.8,1.8c-1,0-1.8-0.8-1.8-1.8c-0.1-5.2,0.9-8.6,3-10.7c2.6-2.6,6.7-2.8,10.6-2.7c8.4,0.3,11.6,2.3,24.8,10.8
				c0.8,0.5,1.7,1.1,2.6,1.6c5,3.2,8.8,5.9,11.9,8c6.3,4.4,9.2,6.4,13.3,6.6c5.1,0.3,12,0.1,12.1,0.1
				C292.6,124.6,293.4,125.4,293.4,126.5C293.4,126.4,293.4,126.5,293.4,126.5z"/>
			<path fill="#414042" d="M293.1,126.5c0,0.8-0.6,1.4-1.4,1.4c-0.3,0-7.1,0.2-12.3-0.1c-5.1-0.3-8.4-2.6-15-7.2
				c-3-2.1-6.8-4.7-11.7-7.9c-0.9-0.6-1.7-1.1-2.6-1.6c-13.2-8.5-15.6-10-23.1-10.3c-4.4-0.1-6.8,0.4-8.2,1.8
				c-1.4,1.3-2,3.8-2.1,7.5c0,0.3,0,0.5,0,0.8l0,0c0,0.8-0.6,1.4-1.4,1.4c-0.4,0-0.8-0.1-1-0.4c-0.3-0.3-0.4-0.6-0.4-1
				c0-0.3,0-0.6,0-0.9c0-4.6,1-7.6,2.9-9.5c2.5-2.5,6.5-2.7,10.3-2.6c8.3,0.3,11.4,2.3,24.6,10.7c0,0,1.8,1.1,2.6,1.6
				c5,3.2,8.8,5.9,11.8,8c6.4,4.5,9.3,6.5,13.5,6.7c5,0.3,11.8,0.1,12.1,0.1c0.4,0,0.8,0.1,1,0.4C292.9,125.7,293.1,126,293.1,126.5
				L293.1,126.5z"/>
			<path fill="#58595B" d="M292.7,126.5c0,0.6-0.5,1.1-1.1,1.1c-0.3,0-7.1,0.2-12.3-0.1c-5-0.3-8.3-2.6-14.8-7.2
				c-3-2.1-6.8-4.7-11.8-7.9c-0.8-0.5-2.6-1.6-2.6-1.6c-13.3-8.5-15.7-10.1-23.3-10.3c-4.5-0.1-7,0.4-8.5,1.9
				c-1.4,1.4-2.1,3.9-2.2,7.8c0,0.3,0,0.5,0,0.8v0c0,0.6-0.5,1.1-1.1,1.1c-0.3,0-0.6-0.1-0.8-0.3c-0.2-0.2-0.3-0.5-0.3-0.8
				c0-0.3,0-0.6,0-0.9c0-4.5,0.9-7.4,2.8-9.3c2.5-2.4,6.3-2.6,10.1-2.5c8.2,0.3,11.3,2.3,24.4,10.7c0,0,1.8,1.1,2.6,1.6
				c5,3.2,8.8,5.9,11.8,8c6.4,4.5,9.3,6.5,13.7,6.8c5,0.3,11.9,0.1,12.1,0.1c0.3,0,0.6,0.1,0.8,0.3
				C292.6,125.9,292.7,126.2,292.7,126.5L292.7,126.5z"/>
			<path fill="#6D6E71" d="M292.5,126.5c0,0.5-0.4,0.9-0.9,0.9c-0.3,0-7.1,0.2-12.3-0.1c-4.9-0.3-8.2-2.6-14.7-7.1
				c-3-2.1-6.8-4.7-11.8-7.9c-0.8-0.5-2.6-1.6-2.6-1.6c-13.3-8.6-15.8-10.1-23.4-10.3c-4.6-0.1-7,0.4-8.6,1.9
				c-1.5,1.4-2.2,4-2.2,7.9c0,0.3,0,0.5,0,0.8v0c0,0.5-0.4,0.9-0.9,0.9c-0.2,0-0.5-0.1-0.6-0.3c-0.2-0.2-0.3-0.4-0.3-0.6
				c0-0.3,0-0.6,0-0.9c0-4.4,0.9-7.3,2.8-9.2c2.4-2.4,6.2-2.6,9.9-2.5c8.2,0.3,11.3,2.3,24.3,10.6c0,0,2,1.3,2.6,1.6
				c5,3.2,8.8,5.9,11.8,8c6.4,4.5,9.4,6.6,13.8,6.8c5,0.3,11.9,0.1,12.2,0.1c0.2,0,0.5,0.1,0.6,0.2
				C292.4,126,292.5,126.2,292.5,126.5L292.5,126.5z"/>
			<path fill="#808285" d="M292.4,126.5c0,0.4-0.3,0.7-0.7,0.7c-0.7,0-7.2,0.2-12.3-0.1c-4.9-0.3-8.1-2.5-14.6-7.1
				c-3-2.1-6.8-4.7-11.8-7.9c-0.8-0.5-2.6-1.6-2.6-1.6c-13.4-8.6-15.8-10.1-23.5-10.4c-4.6-0.1-7.1,0.4-8.7,2
				c-1.5,1.5-2.3,4.1-2.3,8c0,0.3,0,0.5,0,0.8l0,0c0,0.4-0.3,0.7-0.7,0.7c-0.2,0-0.4-0.1-0.5-0.2c-0.1-0.1-0.2-0.3-0.2-0.5
				c0-0.3,0-0.6,0-0.9c0-4.4,0.9-7.2,2.7-9c2.4-2.3,6.1-2.5,9.8-2.4c8.1,0.3,11.2,2.2,24.2,10.6c0,0,2,1.3,2.6,1.6
				c5,3.2,8.8,5.8,11.8,8c6.5,4.5,9.4,6.6,13.9,6.9c5.1,0.3,12.1,0.1,12.2,0.1c0.2,0,0.4,0.1,0.5,0.2
				C292.3,126.1,292.4,126.3,292.4,126.5L292.4,126.5z"/>
			<path fill="#939598" d="M292.2,126.5c0,0.3-0.2,0.5-0.5,0.5c-0.7,0-7.2,0.2-12.3-0.1c-4.8-0.3-8.1-2.5-14.5-7.1
				c-3-2.1-6.8-4.7-11.8-7.9c-0.8-0.5-2.6-1.6-2.6-1.6c-13.4-8.6-15.8-10.2-23.6-10.4c-4.7-0.2-7.2,0.4-8.9,2
				c-1.5,1.5-2.3,4.2-2.3,8.1c0,0.3,0,0.5,0,0.8l0,0c0,0.3-0.2,0.5-0.5,0.5c-0.1,0-0.3-0.1-0.4-0.2c-0.1-0.1-0.2-0.2-0.2-0.4
				c0-0.3,0-0.6,0-0.9c0-4.3,0.9-7.2,2.7-8.9c2.3-2.3,6-2.5,9.7-2.3c8.1,0.3,11.2,2.2,24.2,10.6l2.6,1.6c5,3.2,8.8,5.8,11.8,8
				c6.5,4.6,9.5,6.6,14,6.9c5.1,0.3,12.1,0.1,12.2,0.1c0.1,0,0.3,0.1,0.4,0.1C292.1,126.2,292.2,126.3,292.2,126.5L292.2,126.5z"/>
			<path fill="#A7A9AC" d="M292,126.5c0,0.2-0.2,0.3-0.4,0.4c-0.7,0-7.3,0.2-12.3-0.1c-4.8-0.3-8-2.5-14.5-7
				c-3-2.1-6.8-4.7-11.8-7.9c-0.8-0.5-2.6-1.6-2.6-1.6c-13.5-8.6-15.9-10.2-23.7-10.4c-4.7-0.2-7.3,0.5-9,2.1
				c-1.6,1.6-2.4,4.3-2.4,8.3c0,0.3,0,0.5,0,0.8c0,0.2-0.2,0.4-0.4,0.4c-0.1,0-0.2,0-0.3-0.1c-0.1-0.1-0.1-0.2-0.1-0.3
				c0-0.3,0-0.6,0-0.9c0-4.3,0.9-7.1,2.6-8.8c2.3-2.2,5.9-2.4,9.5-2.3c8,0.3,11.1,2.2,24.1,10.6l2.6,1.6c5,3.2,8.8,5.8,11.8,8
				c6.5,4.6,9.5,6.7,14.1,6.9c5.1,0.3,12.1,0.1,12.2,0.1c0.1,0,0.2,0,0.3,0.1C292,126.3,292,126.4,292,126.5L292,126.5z"/>
			<path fill="#BCBEC0" d="M291.8,126.5c0,0.1-0.1,0.2-0.2,0.2c-0.7,0-7.2,0.2-12.2-0.1c-4.7-0.3-7.9-2.5-14.4-7
				c-3-2.1-6.8-4.7-11.8-8c-0.8-0.5-2.6-1.6-2.6-1.6c-13.5-8.7-15.9-10.2-23.8-10.5c-4.8-0.2-7.4,0.5-9.1,2.1
				c-1.6,1.6-2.4,4.3-2.5,8.4c0,0.3,0,0.5,0,0.8c0,0.1-0.1,0.2-0.2,0.2c0,0-0.1,0-0.1-0.1c0,0-0.1-0.1-0.1-0.1c0-0.3,0-0.6,0-0.8
				c0-4.2,0.8-7,2.6-8.7c2.2-2.2,5.8-2.4,9.4-2.2c8,0.3,11,2.2,24,10.5l2.6,1.6c5,3.2,8.8,5.8,11.8,7.9c6.6,4.6,9.6,6.7,14.2,7
				c5.1,0.3,12.1,0.1,12.2,0.1c0,0,0.1,0,0.1,0.1C291.8,126.4,291.8,126.4,291.8,126.5L291.8,126.5z"/>
		</g>
		
			<linearGradient id="SVGID_18_" gradientUnits="userSpaceOnUse" x1="164.5863" y1="1097.6829" x2="163.794" y2="1077.2421" gradientTransform="matrix(8.700000e-003 -1 1 8.700000e-003 -789.6113 281.1719)">
			<stop  offset="0.3746" style="stop-color:#FBD943"/>
			<stop  offset="0.4836" style="stop-color:#F6D03C"/>
			<stop  offset="0.7956" style="stop-color:#ECBB2D"/>
			<stop  offset="1" style="stop-color:#E8B327"/>
		</linearGradient>
		<path fill="url(#SVGID_18_)" d="M287.4,134.1c0,0,3.5-1.7,10.5-0.5c7,1.2,6.2,1.8,10-1.2c4-3.1,5.5-7.8,1.8-10.8
			c-3.1-2.6-3.4-4.5-7.3-2.9c-2.5,1-8,3.1-14.9,1c0,0,0.9,3.1,0.9,7.2C288.4,132.2,287.4,134.1,287.4,134.1z"/>
	</g>
	
		<linearGradient id="SVGID_19_" gradientUnits="userSpaceOnUse" x1="2813.9026" y1="-202.823" x2="2844.1724" y2="-202.823" gradientTransform="matrix(1 8.700000e-003 -8.700000e-003 1 -2614.2891 321.1608)">
		<stop  offset="0" style="stop-color:#2B3990"/>
		<stop  offset="2.766377e-002" style="stop-color:#2A3D93"/>
		<stop  offset="0.2454" style="stop-color:#2455A5"/>
		<stop  offset="0.4734" style="stop-color:#1F67B2"/>
		<stop  offset="0.7164" style="stop-color:#1D72BA"/>
		<stop  offset="1" style="stop-color:#1C75BC"/>
	</linearGradient>
	<path fill="url(#SVGID_19_)" d="M231.1,163.8c0.1-1.4,0.1-0.8,0.2-2c0.1-1.1-0.1-2.3,0-2.8c0-0.3-0.1-0.7-0.1-1.2l0-1.1
		c0,0,0-0.1,0-0.1c0.3-0.8,0.1-0.7,0.1-1.8c0-1.1-0.1-0.7,0-1.3c0.2-0.6,0-3.2,0.1-4c0.2-0.7-0.4-1-0.2-2c0.2-1-0.3-1.3,0.1-2.4
		c0.3-1.1-0.1-0.6-0.1-1.6c0-0.9,0-2.7,0-3.6l0-1.7c0.1-0.4,0.2-0.7,0.3-1.1c0.3-0.8-0.1-1.2-0.2-2.6c-0.1-1.4-0.1-1.4,0.1-2.1
		c0.2-0.7-0.1-0.6-0.1-1.4c0-0.3,0-0.6-0.1-0.8l0-0.5c0-0.1,0.1-0.3,0.1-0.5c0.3-0.8-0.1-0.8,0-1.7c0.1-0.9-0.2-0.9,0.1-1.6
		c0.2-0.6,0.1-3.7,0.1-4.2c0.1-0.5-0.4-0.7-0.1-1.4c0.3-0.8,0-0.9,0-1.5c0-0.3-0.1-0.4-0.1-0.6l0-0.5c0,0,0-0.1,0.1-0.1
		c0.4-0.6,0-0.3,0.2-0.9c0.2-0.6-0.2-1.1,0-1.6c0.2-0.6-0.1-2.4-0.1-3.1c0-0.3,0-0.5,0-0.7l0-0.5c0-0.2,0.1-0.4,0.1-0.6
		c0.2-0.8-0.2-1,0.2-1.6c0.4-0.6-0.3-0.7-0.1-1.1c0.2-0.4-0.1-0.3-0.1-0.7c0-0.3,0-0.7,0.1-0.9c0.2-0.3-0.2-0.3-0.2-0.3
		c-0.1,0-0.2,0-0.3,0c0,0,0-0.1,0-0.2c0-0.3-0.1,0-0.3,0.1c-0.1,0-0.1,0-0.2,0c0,0,0,0,0-0.1c-0.1-0.3-0.3,0-0.4,0c0,0-0.1,0-0.1,0
		c0,0,0,0,0-0.1c0-0.4-0.5-0.1-0.5-0.1c0-0.3-0.1,0-0.4,0.1c-0.1,0-0.2,0-0.3,0c-0.1,0-0.1-0.1-0.2-0.1c-0.5-0.4-0.5,0-0.7,0
		c-0.1,0-0.1,0-0.2,0c0,0,0,0-0.1,0c-0.2-0.1-0.3-0.1-0.4,0c-0.1,0-0.3,0-0.4,0c0,0,0,0,0-0.1c-0.2-0.3-0.3-0.1-0.5,0
		c-0.1,0-0.2,0-0.4,0c0,0-0.1-0.1-0.1-0.1c-0.3-0.3-0.4-0.1-0.5,0.1c-0.1,0-0.2,0-0.3,0c-0.1-0.1-0.2,0-0.3,0c-0.1,0-0.1,0-0.2,0
		c0,0-0.1-0.1-0.1-0.1c-0.3-0.4-0.5,0.1-0.6-0.1c-0.1-0.2-0.4,0.3-0.6,0.1c-0.1-0.1-0.4,0-0.5,0c0,0,0,0,0,0c0,0-0.1,0-0.1-0.1
		c-0.1-0.3-0.8,0.2-0.8,0c0-0.1-0.2,0-0.4,0c-0.1,0-0.3,0-0.4,0c0,0,0,0,0,0c-0.1-0.2-0.2,0-0.4,0c0,0-0.1,0-0.1,0
		c0,0-0.1,0-0.1-0.1c-0.2-0.3-0.4,0.2-0.5-0.1c-0.1-0.2-0.5,0.1-0.7,0.1c0,0,0,0-0.1,0l0,0c-0.1-0.1-0.4-0.1-0.4-0.1
		c-0.3-0.4-1.1,0-1.1,0c-0.3-0.4-1.3,0.1-1.3,0.1c-0.2-0.4-0.7,0-0.7,0c-0.2-0.5-1.2-0.1-1.2-0.1c0-0.3-0.7,0-0.7,0
		c-0.3-0.3-0.7,0.2-0.9,0c-0.2-0.3-0.8,0.4-0.9,0.1c-0.1-0.3-0.6,0.2-0.6-0.1c0-0.3-0.3,0.1-0.3,0.1c-0.2-0.4-0.2-0.1-0.2,0.1
		c0,0,0,0-0.1,0c0,0,0-0.1,0-0.2c-0.1-0.6-0.4,0-0.6,0.2c0,0,0,0,0,0c0,0,0,0,0,0c0.2-0.6-0.8,0.2-1-0.1c-0.3-0.3-0.8,0.3-1.1,0
		c-0.3-0.2-0.7,0.1-0.9,0.2c0,0-0.1,0-0.1,0c0,0,0,0,0-0.1c0.2-0.3-0.4-0.2-1,0c-0.1,0-0.1,0.1-0.2,0.1c0,0-0.1,0-0.1,0c0,0,0,0,0,0
		c0-0.2-0.5-0.2-0.9-0.1c-0.2,0.1-0.2,0.1-0.3,0.1c0,0-0.1,0-0.1,0c0,0,0-0.1-0.1-0.1c-0.1-0.2-0.6,0.3-0.7,0.1c0-0.2-0.8,0.2-0.8,0
		c0-0.2-0.6,0.2-0.7,0.1c0-0.1-0.1,0-0.2,0.1c-0.1,0-0.1,0-0.2,0c0,0,0,0,0,0c-0.1-0.1-0.1,0-0.2,0.1c-0.1,0-0.2,0.1-0.2,0.1
		c0,0,0,0.1,0,0.1l-0.7,74.5c0,0,0,0.1,0,0.1c0,0,0,0,0,0c0,0,0,0,0,0.1c0,0,0.1,0,0.1,0c0.1,0.1,0.2,0.1,0.5,0.1
		c0.1,0,0.2,0,0.4-0.1c0.4,0,0.8,0.1,1.2,0.1c0,0.5-0.2,0.9,1,0.4c0.2-0.1,0.4-0.2,0.5-0.3c0.7,0,1.3,0.1,2,0.1
		c0.5,0.6,1,0.9,1.6,0.4c0.7-0.6,1.3,0.3,1.6-0.2c0,0,0.1-0.1,0.1-0.1c0.1,0,0.2,0,0.3,0c0.4,0.1,0.9,0.7,1,0.4
		c0.2-0.4,1.1,0.1,1.2-0.2c0.1-0.3,0.7,0.7,1.2,0.1c0.1-0.1,0.2-0.2,0.2-0.2c0,0,0.1,0,0.1,0c0,0.1,0,0.2,0.1,0.1
		c0.2-0.2,0.3,0,0.5-0.1c0.2-0.1,0.1,0.2,0.5,0c0,0,0.1,0,0.1-0.1c0,0,0,0,0,0c0.1,0,0.2,0,0.3,0c0.2,0,0.3,0.1,0.4,0.1
		c0.1-0.2,0.2,0.2,0.5,0c0.2-0.2,0.2,0.4,0.6,0c0.4-0.3,0.7,0.3,0.9,0c0-0.1,0.1-0.1,0.1-0.1c0.2,0,0.3,0,0.5,0c0,0,0,0,0,0
		c0.3,0.5,1.3,0.6,0.9,0.1c-0.1-0.1-0.1-0.1-0.1-0.2c0.2,0,0.4,0,0.6,0c0,0,0,0,0,0c0.1,0.2,0.6,0.1,0.6,0.1l0.6-0.1
		c0.1,0,0.3,0,0.4,0l0.1,0l0.1,0c0.2,0,0.3,0,0.5,0c0.1,0.1,0.4,0.2,0.6,0.1c0.2-0.2,0.8,0.1,0.8-0.1c0-0.2,0.7,0.2,0.8,0
		c0.1-0.2,0.6,0,0.8-0.1c0.1,0,0.2,0,0.4,0c0.3,0.1,0.6,0.3,0.5,0.1c0-0.2,0.9,0.3,0.8,0c-0.1-0.3,1.1,0.2,0.9-0.1
		c-0.2-0.3,0.9,0.1,0.8,0c0-0.1,0.8,0,0.7-0.2c0.1,0,0.1,0,0.2,0c0.1,0,0.2,0.1,0.2,0c0.1-0.2,0.6,0.2,0.5,0c0,0,0-0.1,0-0.1
		c0.1,0,0.3,0,0.4,0c0,0,0,0,0,0c0,0,0.1,0.2,0.1-0.9c0-0.6-0.1-1.1-0.1-1.6l0-0.3c0-0.3,0-0.6,0.1-1c0.2-1.1-0.1-1.2,0-2.5
		c0-0.6,0-0.9,0-1.1l0-0.8c0-0.1,0-0.2,0.1-0.3c0.3-1,0.3-0.8,0.1-2.1c-0.1-0.4-0.1-0.8-0.1-1.2l0-0.7c0-0.7,0.1-1.4,0.3-1.7
		c0.3-0.6-0.2-0.8-0.3-1.7L231.1,163.8z"/>
</g>
</svg>
