<?xml version="1.0" encoding="utf-8"?>
<!-- Generator: Adobe Illustrator 19.0.0, SVG Export Plug-In . SVG Version: 6.00 Build 0)  -->
<!DOCTYPE svg PUBLIC "-//W3C//DTD SVG 1.1//EN" "http://www.w3.org/Graphics/SVG/1.1/DTD/svg11.dtd">
<svg version="1.1" xmlns="http://www.w3.org/2000/svg" xmlns:xlink="http://www.w3.org/1999/xlink" x="0px" y="0px"
	 viewBox="0 0 142.3 222.4" enable-background="new 0 0 142.3 222.4" xml:space="preserve">
<g id="Layer_2" display="none">
	
		<rect id="XMLID_28_" x="-140.4" y="-22" display="inline" fill="#1D74BD" stroke="#000000" stroke-width="1.0529" stroke-miterlimit="10" width="393.2" height="238.2"/>
</g>
<g id="Layer_1">
	<g id="XMLID_82_">
		
			<linearGradient id="XMLID_191_" gradientUnits="userSpaceOnUse" x1="116.9506" y1="39.0163" x2="224.383" y2="220.0974" gradientTransform="matrix(-0.8891 0.283 0.2529 0.9588 182.3551 -58.686)">
			<stop  offset="0" style="stop-color:#1D4F6B;stop-opacity:0.7"/>
			<stop  offset="0.9949" style="stop-color:#1D74BD;stop-opacity:0"/>
		</linearGradient>
		<polygon id="XMLID_81_" fill="url(#XMLID_191_)" points="0,211.6 88.8,219.9 134.4,17.8 37.7,8.9 		"/>
		<g id="XMLID_1_">
			<g>
				<defs>
					<rect id="XMLID_192_" x="34.4" y="0" width="107.9" height="222.4"/>
				</defs>
				<clipPath id="XMLID_216_">
					<use xlink:href="#XMLID_192_"  overflow="visible"/>
				</clipPath>
				<g clip-path="url(#XMLID_216_)">
					<defs>
						<rect id="XMLID_193_" x="34.4" y="0" width="107.9" height="222.4"/>
					</defs>
					<clipPath id="XMLID_217_">
						<use xlink:href="#XMLID_193_"  overflow="visible"/>
					</clipPath>
					<g clip-path="url(#XMLID_217_)">
						<defs>
							<rect id="XMLID_194_" x="34.4" y="0" width="107.9" height="222.4"/>
						</defs>
						<clipPath id="XMLID_218_">
							<use xlink:href="#XMLID_194_"  overflow="visible"/>
						</clipPath>
						<g opacity="0.55" clip-path="url(#XMLID_218_)">
							<g>
								<defs>
									<rect id="XMLID_214_" x="88.8" y="108.9" width="28.9" height="113.4"/>
								</defs>
								<clipPath id="XMLID_219_">
									<use xlink:href="#XMLID_214_"  overflow="visible"/>
								</clipPath>
								<path id="XMLID_215_" clip-path="url(#XMLID_219_)" fill="#FFFFFF" d="M89.8,205c0,4.7-0.7,11.1-1,14.1
									c3.9,1.8,15.4,6.1,25.3,0.3c-0.2-3.2-0.4-9.3-0.2-13.7c0.4-7.6,1.6-13.5,0.1-19c-1.8-6.9,1.8-13.8,0.1-19.6
									c-2.6-8.8,0.5-21.5,0.7-25.8c0.2-4.3,0.4-2.7,1.9-5.3c1.5-2.6,1-2.9-0.5-6c-1.5-3.1-2.9-7.5-2.1-12.6
									c0.8-5.1,2.3-7.2-2.6-7.7c-4.9-0.5-7.1-0.6-7.1-0.6v0c0,0-1.8,0-6.7,0.2c-4.9,0.2-3.6,2.4-3.1,7.6c0.5,5.2-1.2,9.5-2.8,12.5
									c-1.7,3-2.2,3.2-0.9,6c1.3,2.7,1.6,1.1,1.6,5.5c0,4.3,2.3,17.1-0.8,25.8c-2,5.7,1.2,12.8-1,19.6
									C89,191.5,89.9,197.4,89.8,205"/>
							</g>
						</g>
						<g opacity="0.55" clip-path="url(#XMLID_218_)">
							<g>
								<defs>
									<rect id="XMLID_212_" x="88.8" y="108.9" width="28.9" height="113.4"/>
								</defs>
								<clipPath id="XMLID_220_">
									<use xlink:href="#XMLID_212_"  overflow="visible"/>
								</clipPath>
								<path id="XMLID_213_" clip-path="url(#XMLID_220_)" fill="#FFFFFF" d="M89.8,205c0,4.7-0.7,11.1-1,14.1
									c3.9,1.8,15.4,6.1,25.3,0.3c-0.2-3.2-0.4-9.3-0.2-13.7c0.4-7.6,1.6-13.5,0.1-19c-1.8-6.9,1.8-13.8,0.1-19.6
									c-2.6-8.8,0.5-21.5,0.7-25.8c0.2-4.3,0.4-2.7,1.9-5.3c1.5-2.6,1-2.9-0.5-6c-1.5-3.1-2.9-7.5-2.1-12.6
									c0.8-5.1,2.3-7.2-2.6-7.7c-4.9-0.5-7.1-0.6-7.1-0.6v0c0,0-1.8,0-6.7,0.2c-4.9,0.2-3.6,2.4-3.1,7.6c0.5,5.2-1.2,9.5-2.8,12.5
									c-1.7,3-2.2,3.2-0.9,6c1.3,2.7,1.6,1.1,1.6,5.5c0,4.3,2.3,17.1-0.8,25.8c-2,5.7,1.2,12.8-1,19.6
									C89,191.5,89.9,197.4,89.8,205"/>
							</g>
						</g>
						<g opacity="0.55" clip-path="url(#XMLID_218_)">
							<g>
								<defs>
									<rect id="XMLID_210_" x="88.8" y="108.9" width="28.9" height="113.4"/>
								</defs>
								<clipPath id="XMLID_221_">
									<use xlink:href="#XMLID_210_"  overflow="visible"/>
								</clipPath>
								<path id="XMLID_211_" clip-path="url(#XMLID_221_)" fill="#FFFFFF" d="M89.8,205c0,4.7-0.7,11.1-1,14.1
									c3.9,1.8,15.4,6.1,25.3,0.3c-0.2-3.2-0.4-9.3-0.2-13.7c0.4-7.6,1.6-13.5,0.1-19c-1.8-6.9,1.8-13.8,0.1-19.6
									c-2.6-8.8,0.5-21.5,0.7-25.8c0.2-4.3,0.4-2.7,1.9-5.3c1.5-2.6,1-2.9-0.5-6c-1.5-3.1-2.9-7.5-2.1-12.6
									c0.8-5.1,2.3-7.2-2.6-7.7c-4.9-0.5-7.1-0.6-7.1-0.6v0c0,0-1.8,0-6.7,0.2c-4.9,0.2-3.6,2.4-3.1,7.6c0.5,5.2-1.2,9.5-2.8,12.5
									c-1.7,3-2.2,3.2-0.9,6c1.3,2.7,1.6,1.1,1.6,5.5c0,4.3,2.3,17.1-0.8,25.8c-2,5.7,1.2,12.8-1,19.6
									C89,191.5,89.9,197.4,89.8,205"/>
							</g>
						</g>
						<path id="XMLID_209_" clip-path="url(#XMLID_218_)" fill="#FFFFFF" d="M114.1,167.1c-2.6-8.8,0.5-21.5,0.7-25.8
							c0.1-2,0.2-2.7,0.4-3.2c-8.6,2.4-18,0.6-23-0.7c0.2,0.5,0.3,1.2,0.2,3.2c0,4.3,2.3,17.1-0.8,25.8c-0.6,1.7-0.7,3.5-0.7,5.4
							c2.9,0.6,6.3,1.1,10.3,1.5c5.3,0.5,9.7-0.6,13.2-2.7C114.6,169.4,114.5,168.2,114.1,167.1"/>
						<path id="XMLID_208_" clip-path="url(#XMLID_218_)" fill="#FFFFFF" d="M114.1,167.1c-0.4-1.3-0.6-2.7-0.8-4.1
							c-8.9,1.4-16.1,0.9-20.7,0.2c-0.2,1.1-0.5,2.2-0.9,3.3c-2,5.7,1.2,12.8-1,19.6c-0.3,1-0.6,2-0.7,3c3.7,0.3,8.5,0.2,14.7,0
							c3.2-0.1,6.3-1.1,9.2-2.6C112.3,179.6,115.8,172.8,114.1,167.1"/>
						<path id="XMLID_207_" clip-path="url(#XMLID_218_)" fill="#FFFFFF" d="M91.6,181.7c-0.1,1.5-0.3,2.9-0.8,4.3
							c-1.8,5.5-0.9,11.4-1,19c0,0.9,0,1.8-0.1,2.8c6.4,0.7,15.5-1.3,24.2-3.6c0.4-6.9,1.4-12.3,0-17.5c-0.4-1.5-0.5-3-0.5-4.5
							C105.2,183.4,96.4,182.4,91.6,181.7"/>
						<path id="XMLID_206_" clip-path="url(#XMLID_218_)" fill="#FFFFFF" d="M114.1,219.4c-0.2-3.2-0.4-9.3-0.2-13.7
							c0.1-2.2,0.3-4.3,0.5-6.3c-8.1,1.4-19.3,0.3-24.6-0.4c0.1,1.9,0.1,3.8,0.1,5.9c0,4.7-0.7,11.1-1,14.1
							C92.7,220.9,104.2,225.2,114.1,219.4"/>
						<path id="XMLID_205_" clip-path="url(#XMLID_218_)" fill="#FFFFFF" d="M113.8,111.3c0,0.8-4.2,1.4-9.3,1.3
							c-5.1,0-9.3-0.7-9.3-1.5c0-0.8,4.2-1.4,9.3-1.3C109.7,109.8,113.8,110.5,113.8,111.3"/>
						<path id="XMLID_204_" clip-path="url(#XMLID_218_)" fill="#FFFFFF" d="M105,118.9c-1.3,0-2.3-1-2.3-2.3
							c0-0.4-0.2-9.2,0.1-15.9c0.4-6.7,3.4-11,9.4-19.6c2.7-3.9,6.1-8.7,10.2-15.1c0.7-1.1,1.4-2.2,2.1-3.3
							c10.9-16.9,12.8-20,13.1-29.5c0.2-5.5-0.4-8.5-2.2-10.2c-1.7-1.8-5.1-2.6-10.3-2.5c-1.3,0-2.3-1-2.4-2.3c0-1.3,1-2.3,2.3-2.4
							c6.7-0.1,11,1.1,13.7,3.9c3.3,3.4,3.7,8.6,3.5,13.6c-0.4,10.8-2.9,14.9-13.9,31.9c-0.7,1-1.4,2.1-2.1,3.3
							c-4.2,6.5-7.6,11.3-10.3,15.3c-5.7,8.1-8.3,11.8-8.5,17.1c-0.4,6.5-0.1,15.5-0.1,15.5C107.4,117.8,106.4,118.8,105,118.9
							C105,118.9,105,118.9,105,118.9"/>
						<path id="XMLID_203_" clip-path="url(#XMLID_218_)" fill="#FFFFFF" d="M105,118.4c-1,0-1.8-0.8-1.8-1.8
							c0-0.4-0.2-9.2,0.1-15.9c0.4-6.5,3.3-10.8,9.3-19.3c2.7-3.9,6.1-8.7,10.2-15.1c0.7-1.2,1.4-2.2,2.1-3.3
							c10.9-17,12.9-20.1,13.2-29.8c0.2-5.6-0.5-8.7-2.3-10.5c-1.7-1.8-4.9-2.6-9.7-2.7c-0.3,0-0.7,0-1,0l0,0c-1,0-1.8-0.8-1.9-1.8
							c0-0.5,0.2-1,0.5-1.3c0.3-0.4,0.8-0.6,1.3-0.6c0.4,0,0.8,0,1.1,0c5.9,0.1,9.8,1.3,12.3,3.8c3.2,3.3,3.5,8.3,3.4,13.3
							C141.5,44,138.9,48,128,65c0,0-1.4,2.3-2.1,3.3c-4.1,6.5-7.5,11.3-10.3,15.2c-5.7,8.2-8.3,11.9-8.6,17.4
							c-0.4,6.5-0.1,15.2-0.1,15.6c0,0.5-0.2,1-0.5,1.3C106,118.2,105.6,118.4,105,118.4L105,118.4z"/>
						<path id="XMLID_202_" clip-path="url(#XMLID_218_)" fill="#FFFFFF" d="M105,117.9c-0.8,0-1.4-0.6-1.4-1.4
							c0-0.4-0.2-9.2,0.1-15.8c0.3-6.4,3.3-10.6,9.2-19.1c2.7-3.9,6.1-8.7,10.2-15.1c0.7-1.1,2.1-3.3,2.1-3.3
							c11-17.1,13-20.2,13.3-30c0.2-5.8-0.5-8.9-2.4-10.9c-1.8-1.8-5.1-2.8-10-2.8c-0.3,0-0.7,0-1,0h0c-0.8,0-1.4-0.6-1.4-1.4
							c0-0.4,0.1-0.7,0.4-1c0.3-0.3,0.6-0.4,1-0.4c0.4,0,0.8,0,1.1,0c5.8,0,9.6,1.2,12,3.6c3.1,3.2,3.4,8.1,3.2,12.9
							c-0.3,10.6-2.9,14.6-13.7,31.4c0,0-1.4,2.3-2.1,3.3c-4.1,6.5-7.5,11.3-10.3,15.2c-5.8,8.3-8.4,12-8.7,17.6
							c-0.4,6.5-0.1,15.3-0.1,15.6c0,0.4-0.1,0.7-0.4,1C105.8,117.8,105.4,117.9,105,117.9L105,117.9z"/>
						<path id="XMLID_201_" clip-path="url(#XMLID_218_)" fill="#FFFFFF" d="M105,117.7c-0.6,0-1.1-0.5-1.1-1.1
							c0-0.4-0.2-9.2,0.1-15.8c0.3-6.3,3.3-10.6,9.2-19c2.7-3.9,6.1-8.7,10.2-15.1c0.7-1.1,2.1-3.3,2.1-3.3
							c11-17.2,13-20.3,13.3-30.1c0.2-5.9-0.5-9.1-2.5-11.1c-1.9-1.9-5.2-2.8-10.1-2.9c-0.3,0-0.7,0-1.1,0h0c-0.6,0-1.1-0.5-1.2-1.1
							c0-0.3,0.1-0.6,0.3-0.8c0.2-0.2,0.5-0.3,0.8-0.4c0.4,0,0.7,0,1.1,0c5.7,0.1,9.4,1.2,11.8,3.6c3,3.1,3.3,8,3.2,12.8
							c-0.3,10.5-2.9,14.5-13.7,31.3c0,0-1.6,2.5-2.1,3.3c-4.1,6.5-7.5,11.3-10.3,15.2c-5.8,8.3-8.5,12.1-8.8,17.8
							c-0.3,6.5-0.1,15.3-0.1,15.6c0,0.3-0.1,0.6-0.3,0.8C105.6,117.6,105.4,117.7,105,117.7L105,117.7z"/>
						<path id="XMLID_200_" clip-path="url(#XMLID_218_)" fill="#FFFFFF" d="M105,117.5c-0.5,0-0.9-0.4-0.9-0.9
							c0-0.9-0.2-9.3,0.1-15.8c0.3-6.3,3.3-10.5,9.1-18.8c2.7-3.9,6.1-8.7,10.2-15.1c0.7-1.1,2.1-3.3,2.1-3.3
							c11-17.2,13-20.3,13.4-30.2c0.2-5.9-0.5-9.2-2.6-11.2c-1.9-1.9-5.3-2.9-10.3-2.9c-0.3,0-0.7,0-1.1,0l0,0
							c-0.5,0-0.9-0.4-0.9-0.9c0-0.2,0.1-0.5,0.3-0.7c0.2-0.2,0.4-0.3,0.7-0.3c0.4,0,0.7,0,1.1,0c5.6,0,9.3,1.2,11.6,3.5
							c3,3,3.2,7.8,3.1,12.6c-0.3,10.4-2.9,14.4-13.6,31.2c0,0-1.6,2.5-2.1,3.3c-4.1,6.5-7.5,11.3-10.2,15.2
							c-5.8,8.3-8.5,12.1-8.8,17.9c-0.4,6.5-0.1,15.6-0.1,15.7c0,0.3-0.1,0.5-0.3,0.7C105.5,117.3,105.3,117.4,105,117.5L105,117.5z
							"/>
						<path id="XMLID_199_" clip-path="url(#XMLID_218_)" fill="#FFFFFF" d="M105,117.2c-0.4,0-0.7-0.3-0.7-0.7
							c0-0.9-0.2-9.3,0.1-15.8c0.3-6.2,3.3-10.4,9.1-18.7c2.7-3.9,6.1-8.7,10.2-15.1c0.7-1.1,2.1-3.3,2.1-3.3
							c11.1-17.3,13.1-20.4,13.4-30.4c0.2-6-0.6-9.3-2.6-11.4c-2-2-5.4-3-10.5-3c-0.3,0-0.7,0-1.1,0l0,0c-0.4,0-0.7-0.3-0.7-0.7
							c0-0.2,0.1-0.4,0.2-0.5c0.1-0.1,0.3-0.2,0.5-0.2c0.4,0,0.7,0,1.1,0c5.6,0,9.2,1.1,11.5,3.4c2.9,3,3.2,7.7,3,12.4
							c-0.3,10.4-2.9,14.4-13.6,31.1l-2.1,3.3c-4.1,6.4-7.5,11.3-10.2,15.2c-5.9,8.4-8.5,12.2-8.9,18c-0.4,6.5-0.1,15.6-0.1,15.7
							c0,0.2-0.1,0.4-0.2,0.5C105.4,117.1,105.2,117.2,105,117.2L105,117.2z"/>
						<path id="XMLID_198_" clip-path="url(#XMLID_218_)" fill="#FFFFFF" d="M105,117c-0.2,0-0.4-0.2-0.5-0.5
							c0-0.9-0.2-9.3,0.1-15.8c0.3-6.1,3.2-10.3,9-18.6c2.7-3.9,6.1-8.7,10.2-15.2c0.7-1.1,2.1-3.3,2.1-3.3
							c11.1-17.3,13.1-20.4,13.4-30.5c0.2-6.1-0.6-9.4-2.7-11.6c-2-2-5.5-3-10.6-3.1c-0.3,0-0.7,0-1.1,0c-0.3,0-0.5-0.2-0.5-0.5
							c0-0.1,0-0.2,0.1-0.3c0.1-0.1,0.2-0.1,0.3-0.1c0.4,0,0.7,0,1.1,0c5.5,0,9.1,1.1,11.3,3.4c2.9,2.9,3.1,7.6,3,12.3
							c-0.3,10.3-2.9,14.3-13.6,31l-2.1,3.3c-4.1,6.4-7.5,11.3-10.2,15.2c-5.9,8.4-8.6,12.3-8.9,18.1c-0.4,6.5-0.1,15.6-0.1,15.7
							c0,0.1,0,0.2-0.1,0.3C105.3,116.9,105.1,117,105,117L105,117z"/>
						<path id="XMLID_197_" clip-path="url(#XMLID_218_)" fill="#FFFFFF" d="M105,116.8c-0.1,0-0.2-0.1-0.2-0.2
							c0-0.9-0.2-9.3,0.1-15.8c0.3-6.1,3.2-10.2,9-18.5c2.7-3.9,6.1-8.7,10.2-15.2c0.7-1.1,2.1-3.3,2.1-3.3
							c11.1-17.3,13.1-20.5,13.5-30.6c0.2-6.1-0.6-9.5-2.8-11.7c-2-2.1-5.6-3.1-10.8-3.2c-0.3,0-0.7,0-1.1,0c-0.1,0-0.2-0.1-0.2-0.2
							c0-0.1,0-0.1,0.1-0.2c0,0,0.1-0.1,0.2-0.1c0.4,0,0.7,0,1.1,0c5.4,0,9,1.1,11.1,3.3c2.8,2.8,3,7.5,2.9,12.1
							c-0.3,10.3-2.9,14.2-13.5,30.8l-2.1,3.3c-4.1,6.4-7.5,11.3-10.2,15.2c-5.9,8.5-8.6,12.3-8.9,18.3c-0.4,6.6-0.1,15.6-0.1,15.7
							c0,0.1,0,0.1-0.1,0.2C105.1,116.7,105.1,116.8,105,116.8L105,116.8z"/>
						<path id="XMLID_196_" clip-path="url(#XMLID_218_)" fill="#FFFFFF" d="M95.3,111.1c0,0,2.2,4.5,0.7,13.5
							c-1.5,9-2.3,8,1.5,12.9c4,5.1,10,7.1,13.8,2.4c3.3-4,5.7-4.4,3.8-9.3c-1.3-3.2-4-10.2-1.3-19.2c0,0-4,1.2-9.3,1.2
							C97.7,112.4,95.3,111.1,95.3,111.1"/>
						<path id="XMLID_195_" clip-path="url(#XMLID_218_)" fill="#FFFFFF" d="M57,38.6c1.7,0.2,1.1,0.2,2.5,0.3
							c1.5,0.1,2.9-0.1,3.6,0c0.4,0,0.9-0.1,1.5-0.2l1.4,0c0.1,0,0.1,0,0.2,0c1.1,0.4,0.9,0.1,2.3,0.2c1.4,0.1,0.9-0.2,1.7,0
							c0.8,0.2,4.2,0,5.1,0.2c0.9,0.2,1.3-0.5,2.5-0.2c1.3,0.3,1.7-0.3,3,0.1c1.4,0.5,0.8-0.1,2.1-0.1c1.1,0,3.4,0,4.6-0.1l2.1,0
							c0.5,0.1,1,0.2,1.4,0.4c1.1,0.4,1.5-0.1,3.3-0.3c1.8-0.1,1.8-0.1,2.7,0.2c0.9,0.3,0.8-0.1,1.8-0.1c0.4,0,0.7-0.1,1-0.1l0.6,0
							c0.2,0,0.4,0.1,0.6,0.1c1.1,0.4,1-0.1,2.2,0c1.2,0.2,1.2-0.2,2,0.1c0.8,0.3,4.7,0.1,5.4,0.2c0.6,0.1,0.9-0.5,1.9-0.1
							c1,0.4,1.1,0,2,0c0.4,0,0.6-0.1,0.7-0.2l0.6,0c0.1,0,0.1,0.1,0.2,0.1c0.8,0.5,0.4,0,1.1,0.2c0.7,0.2,1.4-0.3,2.1,0
							c0.7,0.2,3.1-0.2,4-0.2c0.3,0,0.6,0,0.8,0l0.7,0c0.2,0,0.5,0.1,0.7,0.2c1,0.3,1.3-0.3,2.1,0.2c0.8,0.5,0.9-0.4,1.4-0.1
							c0.5,0.2,0.4-0.1,0.9-0.1c0.4,0,0.9,0,1.2,0.2c0.3,0.2,0.4-0.2,0.4-0.2c0-0.1,0-0.3,0-0.4c0,0,0.1,0,0.2,0
							c0.3,0,0-0.2-0.2-0.4c0-0.1,0-0.1,0-0.2c0,0,0.1,0,0.1,0c0.4-0.1,0.1-0.4,0-0.5c0,0,0-0.1,0-0.1c0,0,0,0,0.1,0
							c0.5,0,0.1-0.6,0.1-0.6c0.4,0,0-0.2-0.1-0.5c0-0.1,0-0.3,0-0.4c0-0.1,0.1-0.1,0.1-0.2c0.5-0.6,0.1-0.7,0-1c0-0.1,0-0.2,0-0.2
							c0,0,0,0,0-0.1c0.1-0.2,0.1-0.4,0-0.5c0-0.2,0-0.3,0-0.5c0,0,0,0,0.1,0c0.4-0.2,0.1-0.4,0-0.6c0-0.2,0-0.3,0-0.5
							c0-0.1,0.1-0.1,0.2-0.2c0.4-0.4,0.1-0.6-0.1-0.7c0-0.1,0-0.3,0-0.4c0.1-0.2,0.1-0.3,0-0.4c0-0.1,0-0.1,0-0.2
							c0-0.1,0.1-0.1,0.2-0.2c0.5-0.3-0.1-0.7,0.2-0.8c0.3-0.1-0.4-0.5-0.1-0.7c0.2-0.2-0.1-0.5-0.1-0.7c0,0,0,0,0,0
							c0-0.1,0-0.1,0.1-0.1c0.3-0.1-0.2-1,0-1c0.1,0,0-0.2-0.1-0.5c0-0.2,0-0.4,0-0.6c0,0,0,0,0,0c0.3-0.2,0-0.3,0-0.5
							c0,0,0-0.1,0-0.1c0,0,0.1-0.1,0.1-0.1c0.4-0.3-0.2-0.5,0.1-0.6c0.3-0.1-0.1-0.6-0.2-0.9c0,0,0-0.1,0-0.1
							c0.1-0.1,0.2-0.5,0.2-0.5c0.5-0.3,0.1-1.4,0.1-1.4c0.5-0.4-0.1-1.7-0.1-1.7c0.5-0.2,0.1-0.9,0.1-0.9c0.7-0.2,0.1-1.5,0.1-1.5
							c0.4,0,0-0.9,0-0.9c0.3-0.4-0.3-0.9,0.1-1.1c0.3-0.2-0.6-1.1-0.1-1.2c0.4-0.1-0.2-0.7,0.2-0.7c0.4,0-0.1-0.3-0.1-0.3
							c0.6-0.3,0.1-0.2-0.1-0.3c0,0,0-0.1,0-0.1c0.1,0,0.1,0,0.2-0.1c0.8-0.2,0.1-0.6-0.2-0.7c0,0,0,0,0,0c0,0,0,0,0.1,0
							c0.8,0.2-0.2-1,0.1-1.3c0.3-0.3-0.4-1,0-1.5c0.3-0.3-0.1-0.9-0.2-1.1c0,0,0-0.1,0-0.1c0,0,0,0,0.1,0c0.4,0.2,0.3-0.5,0-1.2
							c0-0.1-0.1-0.2-0.1-0.3c0-0.1,0-0.1,0-0.2h0c0.2,0,0.3-0.6,0.1-1.2c-0.1-0.2-0.1-0.3-0.2-0.4c0,0,0-0.1,0-0.1
							c0,0,0.1,0,0.1-0.1c0.3-0.1-0.3-0.8-0.1-0.9c0.2,0-0.3-1.1,0-1.1s-0.2-0.8-0.1-0.9c0.1-0.1,0-0.2-0.1-0.3c0-0.1,0-0.2,0-0.2
							c0,0,0,0,0,0c0.1-0.1,0-0.2-0.1-0.3c0-0.1-0.1-0.2-0.1-0.2c0,0-0.1,0-0.2,0L36.1,0C36,0,36,0,36,0c0,0,0,0,0,0
							c0,0-0.1,0-0.1,0c0,0.1,0,0.1,0,0.2c-0.1,0.1-0.2,0.3-0.2,0.6c0,0.1,0,0.3,0.1,0.5c0,0.5-0.1,1-0.1,1.6
							c-0.6,0.1-1.2-0.2-0.5,1.2c0.1,0.3,0.3,0.5,0.4,0.7c-0.1,0.9-0.1,1.7-0.2,2.6c-0.7,0.6-1.1,1.3-0.6,2c0.8,0.9-0.4,1.7,0.2,2.1
							c0.1,0,0.1,0.1,0.1,0.1c0,0.1,0,0.2,0,0.4c-0.2,0.5-0.9,1.1-0.5,1.3c0.5,0.3-0.1,1.4,0.2,1.6c0.4,0.1-0.9,0.9-0.1,1.6
							c0.2,0.1,0.3,0.2,0.3,0.3c0,0.1,0,0.1,0,0.2c-0.1,0.1-0.3,0-0.2,0.1c0.2,0.2-0.1,0.3,0.1,0.6c0.1,0.2-0.3,0.1,0,0.6
							c0,0.1,0.1,0.1,0.1,0.2c0,0,0,0,0,0c0,0.1,0,0.2,0,0.3c-0.1,0.2-0.2,0.4-0.1,0.5c0.2,0.1-0.3,0.3,0,0.6
							c0.3,0.3-0.5,0.3-0.1,0.8c0.4,0.5-0.4,0.9-0.1,1.2c0.1,0,0.1,0.1,0.2,0.1c0,0.2,0,0.4,0,0.6c0,0,0,0-0.1,0
							c-0.6,0.4-0.7,1.7-0.2,1.2c0.1-0.1,0.2-0.1,0.2-0.1c0,0.3,0,0.5,0,0.8c0,0,0,0,0,0c-0.2,0.1-0.1,0.7-0.1,0.7L35,26
							c0,0.2,0,0.3,0,0.5l0,0.1l0,0.2c0,0.2,0,0.4,0,0.7C35,27.6,34.8,28,35,28.2c0.2,0.2-0.1,1,0.1,1c0.2,0-0.3,0.9-0.1,1
							c0.2,0.1,0,0.8,0.2,1c0,0.2,0,0.3,0,0.5c-0.1,0.3-0.4,0.7-0.2,0.7c0.3,0-0.4,1.2,0,1c0.4-0.2-0.2,1.4,0.1,1.2
							c0.3-0.2-0.1,1.1,0,1.1c0.1,0-0.1,1,0.2,0.9c0,0.1,0,0.2,0,0.3c-0.1,0.1-0.1,0.3,0,0.3c0.2,0.1-0.3,0.8,0,0.7c0,0,0.1,0,0.1,0
							c0,0.2,0,0.4,0,0.5c0,0,0,0,0,0c0,0-0.2,0.2,1.2,0.1c0.8,0,1.4-0.1,2.1-0.1l0.4,0c0.4,0,0.8,0,1.3,0.1c1.5,0.2,1.6-0.1,3.3,0
							c0.7,0,1.1,0,1.5,0l1,0c0.1,0,0.3,0.1,0.4,0.1c1.3,0.4,1,0.4,2.7,0.1c0.5-0.1,1-0.1,1.5-0.1l0.9,0c0.9,0,1.8,0.2,2.2,0.4
							c0.7,0.3,1-0.3,2.1-0.4L57,38.6z"/>
					</g>
				</g>
			</g>
		</g>
	</g>
</g>
</svg>
